<?xml version="1.0" encoding="UTF-8" standalone="no"?>
<svg
   viewBox="0 0 402.143 211.125"
   width="1200"
   height="630"
   version="1.1"
   xmlns="http://www.w3.org/2000/svg"
   xmlns:svg="http://www.w3.org/2000/svg">
   <rect
      width="100%"
      height="100%"
      fill="#1a1313"
   />
   <g
      fill="#fff"
      transform="translate(0,55.56)"
   >
      <path
         scale="2"
         id="scalaio_scala"
         d="M43.13 110.743c4.882 2.564 12.696 5.127 20.632 5.127 8.545 0 13.063-3.541 13.063-8.912 0-5.127-3.907-8.057-13.796-11.476-13.674-4.883-22.708-12.453-22.708-24.417 0-14.04 11.842-24.661 31.131-24.661 9.4 0 16.115 1.831 20.999 4.15L88.3 65.449c-3.175-1.587-9.156-3.907-17.092-3.907-8.058 0-11.965 3.785-11.965 7.936 0 5.25 4.518 7.569 15.261 11.598 14.528 5.371 21.243 12.939 21.243 24.539 0 13.796-10.5 25.516-33.085 25.516-9.4 0-18.678-2.564-23.318-5.128zM153.492 128.324c-3.296 1.586-9.521 2.808-16.603 2.808-19.289 0-31.619-11.843-31.619-30.521 0-17.458 11.963-31.742 34.183-31.742 4.883 0 10.254.854 14.162 2.32l-2.93 13.795c-2.197-.977-5.494-1.832-10.377-1.832-9.767 0-16.116 6.958-15.994 16.725 0 10.866 7.326 16.727 16.36 16.727 4.395 0 7.813-.733 10.621-1.954zM213.922 115.505c0 5.616.245 11.11.978 14.405h-16.726l-1.099-5.98h-.367c-3.906 4.761-10.01 7.325-17.091 7.325-12.087 0-19.29-8.79-19.29-18.314 0-15.504 13.917-22.83 35.039-22.83v-.731c0-3.297-1.71-7.813-10.866-7.813-6.104 0-12.574 2.075-16.481 4.517l-3.418-11.964c4.15-2.32 12.331-5.373 23.196-5.373 19.899 0 26.125 11.721 26.125 25.882zm-17.946-13.795c-9.767 0-17.336 2.319-17.336 9.4 0 4.761 3.174 7.08 7.324 7.08 4.518 0 8.424-3.052 9.645-6.836a13.32 13.32 0 0 0 .367-3.174zM228.696 43.23h18.556v86.68h-18.556zM311.956 115.505c0 5.616.245 11.11.978 14.405h-16.726l-1.1-5.98h-.366c-3.907 4.761-10.011 7.325-17.092 7.325-12.087 0-19.289-8.79-19.289-18.314 0-15.504 13.918-22.83 35.038-22.83v-.731c0-3.297-1.709-7.813-10.865-7.813-6.104 0-12.575 2.075-16.481 4.517l-3.419-11.966c4.151-2.32 12.331-5.373 23.197-5.373 19.899 0 26.125 11.721 26.125 25.882zm-17.945-13.795c-9.768 0-17.336 2.319-17.336 9.4 0 4.761 3.173 7.08 7.324 7.08 4.517 0 8.423-3.052 9.645-6.836a13.32 13.32 0 0 0 .367-3.174z"
         style="fill-rule:nonzero"
         transform="translate(-39.344,-43.23)" />
      <circle
         cx="343.96"
         cy="56.797"
         r="11.025"
         style="fill:#bc1321"
         id="scalaio_i_dot"
         transform="translate(-39.344,-43.23)" />
      <path
         d="M341.715 109.327h11.61V77.4h-19.591v31.927c0 17.632 10.453 31.927 29.389 31.927 1.561 0 3.06-.106 4.506-.294-14.631-2.096-25.914-15.455-25.914-31.633zM407.202 77.4c-18.935 0-34.286 14.295-34.286 31.927 0 6.966-1.062 12.874-5.505 15.054 1.328.578 2.749.91 4.236.91 7.085 0 12.827-7.147 12.827-15.963h8.034c0-8.817 6.578-15.964 14.693-15.964 8.115 0 14.693 7.147 14.693 15.964 0 8.816-6.578 15.963-14.693 15.963-3.08 0-5.923-1.051-8.281-2.814-2.323 5.472-6.045 10.123-10.686 13.425 5.435 3.371 11.947 5.353 18.967 5.353 18.937 0 34.286-14.295 34.286-31.927.002-17.633-15.348-31.928-34.285-31.928Z"
         style="fill:#bc1321;fill-rule:nonzero"
         id="scalaio_io"
         transform="translate(-39.344,-43.23)" />
   </g>
</svg>