<?xml version="1.0" encoding="UTF-8" standalone="no"?>
<!-- Generator: Adobe Illustrator 19.1.1, SVG Export Plug-In . SVG Version: 6.00 Build 0)  -->

<svg
   version="1.1"
   id="svg3021"
   inkscape:version="0.48.4 r9939"
   sodipodi:docname="scala-js-logo.svg"
   inkscape:export-filename="C:\Users\Sepi\Documents\Projets\scalajs-website\images\scala-js-logo-perspective-256.png"
   inkscape:export-ydpi="41.890907"
   inkscape:export-xdpi="41.890907"
   x="0px"
   y="0px"
   width="642.19995"
   height="729.19995"
   viewBox="0 0 642.19995 729.19995"
   xml:space="preserve"
   xmlns:inkscape="http://www.inkscape.org/namespaces/inkscape"
   xmlns:sodipodi="http://sodipodi.sourceforge.net/DTD/sodipodi-0.dtd"
   xmlns="http://www.w3.org/2000/svg"
   xmlns:svg="http://www.w3.org/2000/svg"><defs
   id="defs20" />
<style
   type="text/css"
   id="style1">
	.st0{fill:#D6BA32;}
	.st1{fill:#FFDA3E;}
	.st2{fill:url(#path3043_1_);}
	.st3{fill:url(#path3041_1_);}
	.st4{fill:url(#path3041-7_1_);}
	.st5{fill:url(#path3043-4_1_);}
	.st6{fill:url(#path3047_1_);}
	.st7{fill:url(#path3049_1_);}
	.st8{fill:url(#path3051_1_);}
	.st9{fill:url(#path3047-7_1_);}
	.st10{fill:url(#path3049-7_1_);}
	.st11{fill:url(#path3051-9_1_);}
</style>
<sodipodi:namedview
   id="namedview3053"
   fit-margin-right="50"
   pagecolor="#ffffff"
   gridtolerance="10"
   inkscape:cy="222.33713"
   showgrid="false"
   objecttolerance="10"
   bordercolor="#666666"
   guidetolerance="10"
   fit-margin-left="50"
   borderopacity="1"
   inkscape:cx="339.40934"
   inkscape:zoom="0.70710678"
   inkscape:window-y="41"
   inkscape:current-layer="svg3021"
   inkscape:window-height="890"
   inkscape:window-maximized="1"
   inkscape:window-width="1391"
   inkscape:window-x="418"
   inkscape:pageshadow="2"
   inkscape:pageopacity="0"
   inkscape:showpageshadow="0"
   inkscape:pagecheckerboard="0"
   inkscape:deskcolor="#505050">
	</sodipodi:namedview>
<title
   id="title3023">Scala.js</title>
<desc
   id="desc3025">The Scala Logo</desc>
<g
   id="g1"
   transform="translate(-190.89999,-19.4)">
	<polyline
   class="st0"
   points="249.2,674.5 190.9,19.4 833.1,19.4 774.8,674.5 511.3,748.6  "
   id="polyline1" />
	<polygon
   class="st1"
   points="774.8,77 512.7,77 512.7,696.5 724.9,638.1 "
   id="polygon1" />
</g>
<g
   id="g3886"
   transform="translate(-190.64999,-20.064213)">
	
		<linearGradient
   id="path3043_1_"
   gradientUnits="userSpaceOnUse"
   x1="30.7339"
   y1="692.75519"
   x2="340.57251"
   y2="692.75519"
   gradientTransform="matrix(1.0501,0,0,1.1201,317.15,-290.4122)">
		<stop
   offset="0"
   style="stop-color:#646464"
   id="stop1" />
		<stop
   offset="1"
   style="stop-color:#000000"
   id="stop2" />
	</linearGradient>
	<path
   id="path3043"
   inkscape:connector-curvature="0"
   class="st2"
   d="m 511.9,411.8 v 124.1 c 74.9,-2.5 144.2,0.9 142.9,23.4 L 661.1,448 c 0,0 1.8,-31 -149.2,-36.2 v 0"
   style="fill:url(#path3043_1_)" />
	
		<linearGradient
   id="path3041_1_"
   gradientUnits="userSpaceOnUse"
   x1="30.7339"
   y1="698.11511"
   x2="340.57251"
   y2="698.11511"
   gradientTransform="matrix(1.0501,0,0,1.1201,317.15,-463.9336)">
		<stop
   offset="0"
   style="stop-color:#646464"
   id="stop3" />
		<stop
   offset="1"
   style="stop-color:#000000"
   id="stop4" />
	</linearGradient>
	<path
   id="path3041"
   inkscape:connector-curvature="0"
   class="st3"
   d="m 511.9,227.3 v 141.4 c 79.6,4.3 152.9,14.6 151.5,39.9 l 7.1,-125.4 c 0,0.1 2,-35 -158.6,-55.9 v 0"
   style="fill:url(#path3041_1_)" />
</g>
<g
   id="g4325"
   transform="translate(-189.54644,-19.046446)">
	
		<linearGradient
   id="path3041-7_1_"
   gradientUnits="userSpaceOnUse"
   x1="29.630301"
   y1="663.39362"
   x2="339.46899"
   y2="663.39362"
   gradientTransform="matrix(1.0501,0,0,1.1201,318.7462,-462.3903)">
		<stop
   offset="0"
   style="stop-color:#4B4B4B"
   id="stop5" />
		<stop
   offset="1"
   style="stop-color:#000000"
   id="stop6" />
	</linearGradient>
	<path
   id="path3041-7"
   inkscape:connector-curvature="0"
   class="st4"
   d="m 347.4,192.6 7.5,133 c 0,0 76.4,17.5 157.4,43.1 v -141 C 467.4,215.8 412.9,203.8 347.4,192.6 v 0"
   style="fill:url(#path3041-7_1_)" />
	
		<linearGradient
   id="path3043-4_1_"
   gradientUnits="userSpaceOnUse"
   x1="29.630301"
   y1="660.99512"
   x2="339.46899"
   y2="660.99512"
   gradientTransform="matrix(1.0501,0,0,1.1201,318.7462,-288.8688)">
		<stop
   offset="0"
   style="stop-color:#4B4B4B"
   id="stop7" />
		<stop
   offset="1"
   style="stop-color:#000000"
   id="stop8" />
	</linearGradient>
	<path
   id="path3043-4"
   inkscape:connector-curvature="0"
   class="st5"
   d="m 357.2,367.3 6.6,118 c 0,0 72.2,21.4 148.4,50.4 V 411.6 c -42,-14.1 -93.2,-29.1 -155,-44.3 v 0"
   style="fill:url(#path3043-4_1_)" />
</g>

<g
   id="g3890"
   transform="translate(-190.64999,-20.064213)">
	
		<linearGradient
   id="path3047_1_"
   gradientUnits="userSpaceOnUse"
   x1="30.7339"
   y1="665.16333"
   x2="340.57251"
   y2="665.16333"
   gradientTransform="matrix(1.0501,0,0,-1.1201,317.15,954.3288)">
		<stop
   offset="0"
   style="stop-color:#A00000"
   id="stop9" />
		<stop
   offset="1"
   style="stop-color:#FF0000"
   id="stop10" />
	</linearGradient>
	<path
   id="path3047"
   inkscape:connector-curvature="0"
   class="st6"
   d="m 681.1,96.6 c -1.8,31 -83.2,58.1 -169.2,78.8 V 321.9 C 671,274.2 673,238.9 673,238.9 l 8.1,-142.3 v 0"
   style="fill:url(#path3047_1_)" />
	
		<linearGradient
   id="path3049_1_"
   gradientUnits="userSpaceOnUse"
   x1="30.7339"
   y1="504.70041"
   x2="340.57251"
   y2="504.70041"
   gradientTransform="matrix(1.0501,0,0,-1.1201,317.15,954.3288)">
		<stop
   offset="0"
   style="stop-color:#A00000"
   id="stop11" />
		<stop
   offset="1"
   style="stop-color:#FF0000"
   id="stop12" />
	</linearGradient>
	<path
   id="path3049"
   inkscape:connector-curvature="0"
   class="st7"
   d="m 670.5,283.3 c -1.5,27.2 -78,57.8 -158.6,83.1 v 128.3 c 149.7,-54.8 151.5,-86 151.5,-86 l 7.1,-125.4 v 0"
   style="fill:url(#path3049_1_)" />
	
		<linearGradient
   id="path3051_1_"
   gradientUnits="userSpaceOnUse"
   x1="30.7339"
   y1="363.19821"
   x2="340.57251"
   y2="363.19821"
   gradientTransform="matrix(1.0501,0,0,-1.1201,317.15,954.3288)">
		<stop
   offset="0"
   style="stop-color:#A00000"
   id="stop13" />
		<stop
   offset="1"
   style="stop-color:#FF0000"
   id="stop14" />
	</linearGradient>
	<path
   id="path3051"
   inkscape:connector-curvature="0"
   class="st8"
   d="m 661.1,448 c -1.4,24.1 -73.5,57.2 -149.2,85.8 V 647 C 653.2,587 654.8,559.2 654.8,559.2 L 661.1,448 v 0"
   style="fill:url(#path3051_1_)" />
</g>
<g
   id="g4329"
   transform="translate(-189.54644,-19.046446)">
	
		<linearGradient
   id="path3047-7_1_"
   gradientUnits="userSpaceOnUse"
   x1="29.630301"
   y1="627.97693"
   x2="339.46899"
   y2="627.97693"
   gradientTransform="matrix(1.0501,0,0,-1.1201,318.7462,953.5922)">
		<stop
   offset="0"
   style="stop-color:#780000"
   id="stop15" />
		<stop
   offset="1"
   style="stop-color:#C00000"
   id="stop16" />
	</linearGradient>
	<path
   id="path3047-7"
   inkscape:connector-curvature="0"
   class="st9"
   d="m 512.2,174.7 c -85.5,13.2 -164.8,18 -164.8,18 l 7.5,133 c 62.2,0.6 114.2,-1.3 157.4,-4.9 V 174.7 h -0.1"
   style="fill:url(#path3047-7_1_)" />
	
		<linearGradient
   id="path3049-7_1_"
   gradientUnits="userSpaceOnUse"
   x1="29.630301"
   y1="468.14319"
   x2="339.46899"
   y2="468.14319"
   gradientTransform="matrix(1.0501,0,0,-1.1201,318.7462,953.5922)">
		<stop
   offset="0"
   style="stop-color:#780000"
   id="stop17" />
		<stop
   offset="1"
   style="stop-color:#C00000"
   id="stop18" />
	</linearGradient>
	<path
   id="path3049-7"
   inkscape:connector-curvature="0"
   class="st10"
   d="m 512.2,365.1 c -80.2,4.6 -155,2.2 -155,2.2 l 6.6,118 c 58.8,5.5 107.8,7.8 148.4,8.1 v -128.3 0"
   style="fill:url(#path3049-7_1_)" />
	
		<linearGradient
   id="path3051-9_1_"
   gradientUnits="userSpaceOnUse"
   x1="29.630301"
   y1="329.76089"
   x2="339.46899"
   y2="329.76089"
   gradientTransform="matrix(1.0501,0,0,-1.1201,318.7462,953.5922)">
		<stop
   offset="0"
   style="stop-color:#780000"
   id="stop19" />
		<stop
   offset="1"
   style="stop-color:#C00000"
   id="stop20" />
	</linearGradient>
	<path
   id="path3051-9"
   inkscape:connector-curvature="0"
   class="st11"
   d="M 512.2,532.5 C 436.6,530.3 365.9,522.4 365.9,522.4 l 5.9,105.4 c 55.8,9.3 102.1,15 140.4,18.3 v -113.6 0"
   style="fill:url(#path3051-9_1_)" />
</g>
</svg>
