<svg xmlns="http://www.w3.org/2000/svg" version="1.1" viewBox="0 0 402.14301 98.025002" width="500px" height="120px">
  <g transform="translate(-39.344,-43.23)">
    <g>
      <g fill="#ffffff">
        <path
          d="m 43.13,110.743 c 4.882,2.564 12.696,5.127 20.632,5.127 8.545,0 13.063,-3.541 13.063,-8.912 0,-5.127 -3.907,-8.057 -13.796,-11.476 C 49.355,90.599 40.321,83.029 40.321,71.065 c 0,-14.04 11.842,-24.661 31.131,-24.661 9.4,0 16.115,1.831 20.999,4.15 L 88.3,65.449 c -3.175,-1.587 -9.156,-3.907 -17.092,-3.907 -8.058,0 -11.965,3.785 -11.965,7.936 0,5.25 4.518,7.569 15.261,11.598 14.528,5.371 21.243,12.939 21.243,24.539 0,13.796 -10.5,25.516 -33.085,25.516 -9.4,0 -18.678,-2.564 -23.318,-5.128 z"
          style="fill-rule:nonzero"></path>
        <path
          d="m 153.492,128.324 c -3.296,1.586 -9.521,2.808 -16.603,2.808 -19.289,0 -31.619,-11.843 -31.619,-30.521 0,-17.458 11.963,-31.742 34.183,-31.742 4.883,0 10.254,0.854 14.162,2.32 l -2.93,13.795 c -2.197,-0.977 -5.494,-1.832 -10.377,-1.832 -9.767,0 -16.116,6.958 -15.994,16.725 0,10.866 7.326,16.727 16.36,16.727 4.395,0 7.813,-0.733 10.621,-1.954 z"
          style="fill-rule:nonzero"></path>
        <path
          d="m 213.922,115.505 c 0,5.616 0.245,11.11 0.978,14.405 h -16.726 l -1.099,-5.98 h -0.367 c -3.906,4.761 -10.01,7.325 -17.091,7.325 -12.087,0 -19.29,-8.79 -19.29,-18.314 0,-15.504 13.917,-22.83 35.039,-22.83 V 89.38 c 0,-3.297 -1.71,-7.813 -10.866,-7.813 -6.104,0 -12.574,2.075 -16.481,4.517 L 164.601,74.12 c 4.15,-2.32 12.331,-5.373 23.196,-5.373 19.899,0 26.125,11.721 26.125,25.882 z M 195.976,101.71 c -9.767,0 -17.336,2.319 -17.336,9.4 0,4.761 3.174,7.08 7.324,7.08 4.518,0 8.424,-3.052 9.645,-6.836 0.244,-0.977 0.367,-2.076 0.367,-3.174 z"
          style="fill-rule:nonzero"></path>
        <rect x="228.696" y="43.23" width="18.556" height="86.68" style="fill-rule:nonzero"
          id="rect14"></rect>
        <path
          d="m 311.956,115.505 c 0,5.616 0.245,11.11 0.978,14.405 h -16.726 l -1.1,-5.98 h -0.366 c -3.907,4.761 -10.011,7.325 -17.092,7.325 -12.087,0 -19.289,-8.79 -19.289,-18.314 0,-15.504 13.918,-22.83 35.038,-22.83 V 89.38 c 0,-3.297 -1.709,-7.813 -10.865,-7.813 -6.104,0 -12.575,2.075 -16.481,4.517 l -3.419,-11.966 c 4.151,-2.32 12.331,-5.373 23.197,-5.373 19.899,0 26.125,11.721 26.125,25.882 z M 294.011,101.71 c -9.768,0 -17.336,2.319 -17.336,9.4 0,4.761 3.173,7.08 7.324,7.08 4.517,0 8.423,-3.052 9.645,-6.836 0.244,-0.977 0.367,-2.076 0.367,-3.174 z"
          style="fill-rule:nonzero"></path>
      </g>
      <g id="g26">
        <circle cx="343.95999" cy="56.797001" r="11.025" style="fill:#bc1321"></circle>
        <path
          d="m 341.715,109.327 h 11.61 V 77.4 h -19.591 v 31.927 c 0,17.632 10.453,31.927 29.389,31.927 1.561,0 3.06,-0.106 4.506,-0.294 -14.631,-2.096 -25.914,-15.455 -25.914,-31.633 z"
          style="fill:#bc1321;fill-rule:nonzero"></path>
        <path
          d="m 407.202,77.4 c -18.935,0 -34.286,14.295 -34.286,31.927 0,6.966 -1.062,12.874 -5.505,15.054 1.328,0.578 2.749,0.91 4.236,0.91 7.085,0 12.827,-7.147 12.827,-15.963 h 8.034 c 0,-8.817 6.578,-15.964 14.693,-15.964 8.115,0 14.693,7.147 14.693,15.964 0,8.816 -6.578,15.963 -14.693,15.963 -3.08,0 -5.923,-1.051 -8.281,-2.814 -2.323,5.472 -6.045,10.123 -10.686,13.425 5.435,3.371 11.947,5.353 18.967,5.353 18.937,0 34.286,-14.295 34.286,-31.927 C 441.489,91.695 426.139,77.4 407.202,77.4 Z"
          style="fill:#bc1321;fill-rule:nonzero"></path>
      </g>
    </g>
  </g>
</svg>