<?xml version="1.0" encoding="UTF-8"?><svg id="Layer_1" xmlns="http://www.w3.org/2000/svg" viewBox="0 0 2000 500"><defs><style>.cls-1{fill:#130183;}.cls-2{fill:#fe5000;}.cls-3{fill:#3d1ef8;}</style></defs><rect class="cls-3" x="1187.78" y="183.82" width="18.74" height="18.74"/><rect class="cls-3" x="1169.04" y="202.56" width="18.74" height="18.74"/><rect class="cls-3" x="1150.3" y="221.3" width="18.74" height="18.74"/><rect class="cls-3" x="1187.78" y="296.27" width="18.74" height="18.74"/><rect class="cls-3" x="1169.04" y="277.53" width="18.74" height="18.74"/><rect class="cls-3" x="1150.3" y="258.78" width="18.74" height="18.74"/><rect class="cls-3" x="1131.56" y="240.04" width="18.74" height="18.74"/><rect class="cls-3" x="1724.73" y="296.27" width="18.74" height="18.74"/><rect class="cls-3" x="1743.48" y="277.53" width="18.74" height="18.74"/><rect class="cls-3" x="1762.22" y="258.78" width="18.74" height="18.74"/><rect class="cls-3" x="1724.73" y="183.82" width="18.74" height="18.74"/><rect class="cls-3" x="1743.48" y="202.56" width="18.74" height="18.74"/><rect class="cls-3" x="1762.22" y="221.3" width="18.74" height="18.74"/><rect class="cls-3" x="1780.96" y="240.04" width="18.74" height="18.74"/><path class="cls-2" d="M509.93,319.13l-28.65-42.49c-2.2-3.27-1.3-7.67,1.97-9.87,13.12-8.82,21.35-24.51,21.35-42.66,0-31.09-25.98-55.68-58-55.68h-68.83c-2.6,0-4.71,2.11-4.71,4.71v30.13c0,1.24.96,2.28,2.2,2.34,23.3,1.26,41.99,21.34,41.99,44.25s-18.9,42.77-41.99,44.01c-1.24.07-2.2,1.1-2.2,2.34v29.21c0,2.6,2.11,4.71,4.71,4.71h40c2.6,0,4.71-2.11,4.71-4.71v-14.07c0-10.03,8.66-12.46,15.28-4.59l16.8,21.01c1.51,1.51,3.56,2.36,5.7,2.36h43.82c5.66,0,9.02-6.32,5.85-11.01Z"/><path class="cls-2" d="M531.87,168.38h34.66c2.6,0,4.71,2.11,4.71,4.71v152.29c0,2.6-2.11,4.71-4.71,4.71h-34.66c-2.6,0-4.71-2.11-4.71-4.71v-152.29c0-2.6,2.11-4.71,4.71-4.71Z"/><path class="cls-2" d="M627.54,208.29h-36.55c-2.6,0-4.71-2.11-4.71-4.71v-30.49c0-2.6,2.11-4.71,4.71-4.71h120.97c2.6,0,4.71,2.11,4.71,4.71v30.49c0,2.6-2.11,4.71-4.71,4.71h-35.63c-1.3,0-2.35,1.05-2.35,2.35v114.74c0,2.6-2.11,4.71-4.71,4.71h-34.66c-2.6,0-4.71-2.11-4.71-4.71v-114.74c0-1.3-1.05-2.35-2.35-2.35Z"/><path class="cls-2" d="M737.07,168.38h109.83c2.6,0,4.71,2.11,4.71,4.71v30.26c0,2.6-2.11,4.71-4.71,4.71h-68.11c-1.3,0-2.35,1.05-2.35,2.35v17.56c0,1.3,1.05,2.35,2.35,2.35h63.23c2.6,0,4.71,2.11,4.71,4.71v26.78c0,2.6-2.11,4.71-4.71,4.71h-63.23c-1.3,0-2.35,1.05-2.35,2.35v19.88c0,1.3,1.05,2.35,2.35,2.35h69.96c2.6,0,4.71,2.11,4.71,4.71v29.56c0,2.6-2.11,4.71-4.71,4.71h-111.69c-2.6,0-4.71-2.11-4.71-4.71v-152.29c0-2.6,2.11-4.71,4.71-4.71Z"/><path class="cls-2" d="M954.08,166.06c-49.42,0-89.09,37.58-89.09,83.75s39.67,83.52,89.09,83.52,89.32-37.35,89.32-83.52-39.67-83.75-89.32-83.75ZM954.12,293.89c-24.13,0-44.08-19.26-44.08-44.08s19.72-44.31,44.08-44.31,44.31,20.65,44.31,44.31-20.18,44.08-44.31,44.08Z"/><path class="cls-2" d="M289.78,166.06c25.15,0,47.67,10.74,63.77,27.87,1.84,1.96,1.62,5.08-.44,6.8l-22.86,19.14c-1.86,1.55-4.56,1.4-6.3-.28-9.21-8.83-21.21-14.09-34.16-14.09-24.36,0-44.08,18.56-44.08,43.85s19.72,43.62,44.08,43.62c12.95,0,24.95-5.26,34.16-14.09,1.75-1.68,4.45-1.83,6.3-.28l22.86,19.14c2.06,1.73,2.28,4.85.44,6.8-16.1,17.13-38.61,27.87-63.77,27.87-48.72,0-88.16-35.03-88.16-83.05s39.44-83.29,88.16-83.29Z"/><path class="cls-1" d="M1580.31,314.72v-130.4h-19.19v-15.72h67.05c30.75,0,52.48,15.49,52.48,47.86v63.58c0,33.29-21.96,50.4-52.25,50.4h-67.28v-15.72h19.19ZM1663.54,279.8v-61.04c0-19.19-11.79-34.45-36.99-34.45h-29.13v130.4h28.67c26.13,0,37.46-16.65,37.46-34.91Z"/><rect class="cls-3" x="1423.11" y="183.82" width="37.48" height="18.74"/><rect class="cls-3" x="1404.37" y="202.56" width="18.74" height="37.48"/><rect class="cls-3" x="1404.37" y="258.78" width="18.74" height="37.48"/><rect class="cls-3" x="1460.6" y="258.78" width="18.74" height="18.74"/><rect class="cls-3" x="1479.34" y="277.53" width="18.74" height="18.74"/><rect class="cls-3" x="1498.08" y="258.78" width="18.74" height="18.74"/><rect class="cls-3" x="1498.08" y="296.27" width="18.74" height="18.74"/><rect class="cls-3" x="1460.6" y="202.56" width="18.74" height="37.48"/><rect class="cls-3" x="1423.11" y="240.04" width="37.48" height="18.74"/><rect class="cls-3" x="1423.11" y="296.27" width="56.23" height="18.74"/><path class="cls-1" d="M1335.32,262.93l24.05,27.51v40h-17.11v-34.22l-26.36-30.06h-47.63v64.27h-17.11v-161.84h64.97c26.82,0,44.16,15.26,44.16,42.77v12.71c0,19.65-9.25,33.29-24.97,38.84ZM1343.18,211.37c0-17.34-9.94-27.05-27.05-27.05h-47.86v66.36h45.55c18.5,0,29.36-8.56,29.36-26.59v-12.71Z"/></svg>