<svg fill="#222" version="1.1" id="Calque_1" xmlns="http://www.w3.org/2000/svg" xmlns:xlink="http://www.w3.org/1999/xlink" x="0px" y="0px" viewBox="0 0 838.5 171.6" xml:space="preserve">
<g>
	<g>
		<path class="st0" d="M117,159.5c8.6-1.7,11.9-3.1,11.9-12.9v-49c0-11.5-1.8-12.4-11.5-15.7v-6c17.9-4.1,26.4-8,40.4-16.8h5.4v87.5
			c0,9.8,3.3,11.3,11.9,12.9v6.6H117V159.5z M126.7,18.9c0-10.4,8.1-18.9,18.9-18.9c10.3,0,18.8,8.5,18.8,18.9
			c0,10.9-8.5,18.8-18.8,18.8C134.8,37.6,126.7,29.8,126.7,18.9z"></path>
		<path class="st0" d="M174.3,117.8c0-36.1,28.5-56.7,58.1-56.7c23.5,0,37.5,8.1,37.5,21c0,8-6.3,14.2-14.1,14.2
			c-9,0-12.8-3.8-20.2-15.2c-4.8-7.4-7.2-8.5-12-8.5c-8.5,0-16.2,10-16.2,31.7c0,29.2,18.5,43,35.8,43c9.1,0,16.3-2.6,25.2-9.1
			l3,5.9c-11.9,11.1-25.3,24.3-45.7,24.3C194.5,168.5,174.3,148.6,174.3,117.8z"></path>
		<path class="st0" d="M276.9,159.5c8.6-1.7,11.9-3.1,11.9-12.9v-49c0-11.5-1.8-12.4-11.5-15.7v-6c17.9-4.1,26.4-8,40.4-16.8h5.4
			v87.5c0,9.8,3.3,11.3,11.9,12.9v6.6h-58.1V159.5z M286.6,18.9c0-10.4,8.1-18.9,18.9-18.9c10.3,0,18.8,8.5,18.8,18.9
			c0,10.9-8.5,18.8-18.8,18.8C294.7,37.6,286.6,29.8,286.6,18.9z"></path>
		<path class="st0" d="M344.6,166.1V38.8h35v127.2H344.6z"></path>
		<path class="st0" d="M507.7,64.3v101.8h-35v-9.4c-7.5,9.5-18.3,14.9-31.8,14.9c-28.8,0-46.1-17.3-46.1-46.1V64.3h35v56.5
			c0,13.8,7.8,22.3,20.7,22.3c13.8,0,22.3-11.1,22.3-28.6V64.3H507.7z"></path>
		<path class="st0" d="M636.4,104.8v61.2h-35v-56.5c0-13.8-7.8-22.3-20.7-22.3c-13.8,0-22.3,11.1-22.3,28.6v50.1h-35V64.3h35v9.4
			c7.5-9.5,18.3-15,31.8-15C619,58.7,636.4,76,636.4,104.8z"></path>
		<path class="st0" d="M770.8,38.8v127.2h-35v-10.7c-8.7,10.5-21.9,16.2-38.2,16.2c-31.5,0-50.9-21.5-50.9-56.5
			c0-35,19.4-56.5,50.9-56.5c16.2,0,29.4,5.7,38.2,16.2V38.8H770.8z M735.8,115.2c0-17.2-10.2-27.8-27-27.8c-16.9,0-27,10.7-27,27.8
			s10.2,27.8,27,27.8C725.6,143,735.8,132.3,735.8,115.2z"></path>
		<path class="st0" d="M780.4,159.5c8.6-1.7,11.9-3.1,11.9-12.9v-49c0-11.5-1.7-12.4-11.5-15.7v-6c17.9-4.1,26.4-8,40.4-16.8h5.4
			v87.5c0,9.8,3.3,11.3,11.9,12.9v6.6h-58.1V159.5z M790.1,18.9C790.1,8.5,798.2,0,809,0c10.3,0,18.8,8.5,18.8,18.9
			c0,10.9-8.5,18.8-18.8,18.8C798.2,37.6,790.1,29.8,790.1,18.9z"></path>
	</g>
	<g>
		<rect x="0" y="159.5" class="st0" width="101.8" height="6.6"></rect>
	</g>
</g>
</svg>