<?xml version="1.0" encoding="UTF-8"?>
<svg id="Calque_2" data-name="Calque 2" xmlns="http://www.w3.org/2000/svg" viewBox="0 0 900 250">
  <defs>
    <style>
      .cls-1 {
        fill: #e4843a;
      }

      .cls-2 {
        fill: #f0cf35;
      }

      .cls-3 {
        fill: #a37fb8;
      }

      .cls-4 {
        fill: #535353;
      }

      .cls-5 {
        fill: #99b535;
      }

      .cls-6 {
        fill: #87b7e0;
      }
    </style>
  </defs>
  <g>
    <path class="cls-1" d="M219.22,123.33h0c1.1-3.01,2.14-6.32,3.01-9.84h0c12.41,12.03,17.44,22.5,10.3,35.2-8.18,16.49-46.08,43.86-64.13,46.75,2.78-6.99,39.97-81.89-12.42-126.99,28.42,10.17,49.41,30.51,52.72,33.27,.02,25.37-7.7,45.26-11.52,56.25,22.21-8.29,31.84-22.72,22.04-34.63h0Z"/>
    <path class="cls-3" d="M155.19,27.7h0c-2.52-1.98-5.35-3.99-8.43-5.91h0c15.28-8.09,26.79-9.64,36.66,1.08,13.16,12.88,27.48,57.38,24.65,75.44-5.79-4.8-65.54-63.32-124.62-27.43,18.45-23.89,44.28-37.56,47.93-39.86,24.13,7.82,40.66,21.3,49.93,28.34-1.02-23.69-11.77-37.31-26.12-31.66h0Z"/>
    <path class="cls-6" d="M45.01,58.88h0c-2.66,1.78-5.45,3.86-8.22,6.19h0c-2.97-17.03-.89-28.45,12.35-34.53,16.31-8.53,63.06-8.4,79.36-.13-6.36,4.02-80.47,42.76-64.6,110.04-17.01-24.93-22.04-53.72-23.1-57.9,14.9-20.53,32.83-32.09,42.38-38.73-22.85-6.35-39.12-.34-38.18,15.06h0Z"/>
    <path class="cls-5" d="M40.29,174h0c.87,3.08,1.98,6.37,3.34,9.73h0c-17.11-2.44-27.34-7.95-29.02-22.42-3.07-18.15,11.5-62.57,24.4-75.52,1.86,7.29,15.8,89.75,84.69,95.44-28.97,8.48-57.9,4.36-62.2,4.07-14.93-20.51-20.38-41.14-23.74-52.28-13.1,19.77-12.41,37.1,2.52,40.97h.01Z"/>
    <path class="cls-2" d="M148,213.65h0c3.2,.12,6.68,.08,10.29-.17h0c-7.61,15.52-16.01,23.54-30.29,20.67-18.21-2.69-55.96-30.27-64.28-46.54,7.51,.48,90.24,12.7,116.94-51.05-.89,30.17-13.75,56.42-15.35,60.42-24.12,7.86-45.42,6.67-57.05,6.42,14.75,18.56,31.45,23.26,39.74,10.26h0Z"/>
  </g>
  <g>
    <path class="cls-4" d="M268.57,58.38h25.2l78,116.4h.4V58.38h19.2V199.98h-24.4l-78.8-116.4h-.4v116.4h-19.2V58.38Z"/>
    <path class="cls-4" d="M489.09,199.98h-18v-14.6h-.4c-2.27,5.07-6.2,9.17-11.8,12.3-5.6,3.13-12.07,4.7-19.4,4.7-4.67,0-9.07-.7-13.2-2.1-4.14-1.4-7.77-3.57-10.9-6.5-3.13-2.93-5.63-6.7-7.5-11.3-1.87-4.6-2.8-10.03-2.8-16.3v-61h18v56c0,4.4,.6,8.17,1.8,11.3,1.2,3.13,2.8,5.67,4.8,7.6,2,1.93,4.3,3.33,6.9,4.2,2.6,.87,5.3,1.3,8.1,1.3,3.73,0,7.2-.6,10.4-1.8,3.2-1.2,6-3.1,8.4-5.7,2.4-2.6,4.27-5.9,5.6-9.9,1.33-4,2-8.73,2-14.2v-48.8h18v94.8Z"/>
    <path class="cls-4" d="M502.37,58.38h28.6l45,107.2h.8l44.6-107.2h28.6V199.98h-19.2V83.58h-.4l-47.8,116.4h-12.8l-47.8-116.4h-.4v116.4h-19.2V58.38Z"/>
    <path class="cls-4" d="M659.71,71.18c0-3.6,1.3-6.7,3.9-9.3,2.6-2.6,5.7-3.9,9.3-3.9s6.7,1.3,9.3,3.9c2.6,2.6,3.9,5.7,3.9,9.3s-1.3,6.7-3.9,9.3c-2.6,2.6-5.7,3.9-9.3,3.9s-6.7-1.3-9.3-3.9c-2.6-2.6-3.9-5.7-3.9-9.3Zm4.2,34h18v94.8h-18V105.18Z"/>
    <path class="cls-4" d="M692.83,105.18h18v14.6h.4c2.27-5.07,6.2-9.17,11.8-12.3,5.6-3.13,12.07-4.7,19.4-4.7,4.53,0,8.9,.7,13.1,2.1s7.87,3.57,11,6.5c3.13,2.93,5.63,6.7,7.5,11.3,1.87,4.6,2.8,10.03,2.8,16.3v61h-18v-56c0-4.4-.6-8.17-1.8-11.3-1.2-3.13-2.8-5.67-4.8-7.6-2-1.93-4.3-3.33-6.9-4.2-2.6-.87-5.3-1.3-8.1-1.3-3.73,0-7.2,.6-10.4,1.8-3.2,1.2-6,3.1-8.4,5.7-2.4,2.6-4.27,5.9-5.6,9.9-1.33,4-2,8.73-2,14.2v48.8h-18V105.18Z"/>
    <path class="cls-4" d="M881.43,199.98h-18v-13.6h-.4c-3.47,5.07-8.23,9-14.3,11.8-6.07,2.8-12.3,4.2-18.7,4.2-7.33,0-13.97-1.27-19.9-3.8-5.93-2.53-11-6.07-15.2-10.6-4.2-4.53-7.43-9.8-9.7-15.8-2.27-6-3.4-12.53-3.4-19.6s1.13-13.63,3.4-19.7c2.27-6.07,5.5-11.33,9.7-15.8,4.2-4.47,9.27-7.97,15.2-10.5,5.93-2.53,12.57-3.8,19.9-3.8,6.8,0,13.2,1.43,19.2,4.3,6,2.87,10.6,6.77,13.8,11.7h.4V48.78h18V199.98Zm-49.2-14.4c4.8,0,9.13-.83,13-2.5,3.87-1.67,7.13-3.93,9.8-6.8,2.67-2.87,4.73-6.33,6.2-10.4,1.46-4.07,2.2-8.5,2.2-13.3s-.73-9.23-2.2-13.3c-1.47-4.07-3.54-7.53-6.2-10.4-2.67-2.87-5.93-5.13-9.8-6.8-3.87-1.67-8.2-2.5-13-2.5s-9.13,.83-13,2.5c-3.87,1.67-7.13,3.93-9.8,6.8-2.67,2.87-4.73,6.33-6.2,10.4-1.47,4.07-2.2,8.5-2.2,13.3s.73,9.23,2.2,13.3c1.46,4.07,3.53,7.54,6.2,10.4,2.67,2.87,5.93,5.13,9.8,6.8,3.87,1.67,8.2,2.5,13,2.5Z"/>
  </g>
</svg>