<?xml version="1.0" encoding="UTF-8"?>
<!DOCTYPE svg PUBLIC "-//W3C//DTD SVG 1.1//EN" "http://www.w3.org/Graphics/SVG/1.1/DTD/svg11.dtd">
<svg xmlns="http://www.w3.org/2000/svg" version="1.1" width="2000px" height="1000px" style="shape-rendering:geometricPrecision; text-rendering:geometricPrecision; image-rendering:optimizeQuality; fill-rule:evenodd; clip-rule:evenodd" xmlns:xlink="http://www.w3.org/1999/xlink">
<g><path style="opacity:0.998" fill="#000000" d="M 1248.5,261.5 C 1275.17,261.5 1301.83,261.5 1328.5,261.5C 1328.5,420.167 1328.5,578.833 1328.5,737.5C 1301.83,737.5 1275.17,737.5 1248.5,737.5C 1248.5,578.833 1248.5,420.167 1248.5,261.5 Z"/></g>
<g><path style="opacity:0.982" fill="#f12c29" d="M 150.5,390.5 C 237.68,448.255 324.68,506.255 411.5,564.5C 324.833,622.167 238.167,679.833 151.5,737.5C 150.167,708.167 150.167,678.833 151.5,649.5C 194.042,621.402 236.376,593.068 278.5,564.5C 236.462,535.808 194.129,507.475 151.5,479.5C 150.5,449.841 150.167,420.174 150.5,390.5 Z"/></g>
<g><path style="opacity:0.981" fill="#000000" d="M 595.5,390.5 C 631.625,390.024 665.958,397.524 698.5,413C 700.594,414.255 701.594,416.088 701.5,418.5C 699.551,441.551 697.218,464.551 694.5,487.5C 669.275,462.898 638.941,451.065 603.5,452C 569.677,458.482 559.844,477.315 574,508.5C 579.723,514.888 586.557,519.721 594.5,523C 612.103,529.201 629.77,535.201 647.5,541C 680.994,552.161 701.494,574.994 709,609.5C 712.739,632.295 712.072,654.962 707,677.5C 701.431,695.73 690.598,709.897 674.5,720C 657.543,730.097 639.21,735.763 619.5,737C 580.941,741.184 543.941,735.517 508.5,720C 504.916,717.959 501.416,715.792 498,713.5C 499.112,690.818 500.779,668.151 503,645.5C 503.219,644.062 503.719,642.729 504.5,641.5C 534.23,663.466 567.563,674.299 604.5,674C 616.961,672.199 625.128,665.366 629,653.5C 632.262,640.1 630.595,627.433 624,615.5C 619.986,610.583 615.152,606.75 609.5,604C 588.913,595.471 568.247,587.138 547.5,579C 513.899,562.677 497.566,535.677 498.5,498C 499.014,433.003 531.348,397.169 595.5,390.5 Z"/></g>
<g><path style="opacity:0.983" fill="#000000" d="M 861.5,390.5 C 888.74,388.984 914.74,393.818 939.5,405C 944.833,408.333 950.167,411.667 955.5,415C 956.081,415.893 956.415,416.893 956.5,418C 954.496,441.211 952.163,464.377 949.5,487.5C 932.072,473.788 912.405,464.955 890.5,461C 866.802,456.56 847.635,463.727 833,482.5C 817.722,507.608 810.555,534.941 811.5,564.5C 810.695,590.611 816.195,615.278 828,638.5C 846.131,667.326 871.631,676.159 904.5,665C 920.95,659.777 935.95,651.943 949.5,641.5C 952.551,665.443 954.717,689.443 956,713.5C 924.315,734.65 889.482,742.483 851.5,737C 803.262,729.419 768.762,703.585 748,659.5C 724.028,600.827 722.361,541.493 743,481.5C 763.881,426.67 803.381,396.337 861.5,390.5 Z"/></g>
<g><path style="opacity:0.984" fill="#000000" d="M 1099.5,390.5 C 1161.13,388.225 1198.3,417.225 1211,477.5C 1213.15,488.737 1214.49,500.07 1215,511.5C 1215.5,586.833 1215.67,662.166 1215.5,737.5C 1188.17,737.5 1160.83,737.5 1133.5,737.5C 1133.67,729.493 1133.5,721.493 1133,713.5C 1100.46,736.675 1064.96,742.842 1026.5,732C 997.693,716.825 980.859,692.991 976,660.5C 967.909,617.418 981.076,582.585 1015.5,556C 1050.87,531.489 1090.2,518.656 1133.5,517.5C 1133.2,501.961 1129.03,487.628 1121,474.5C 1110.41,465.972 1098.24,462.305 1084.5,463.5C 1067.1,463.516 1050.44,467.016 1034.5,474C 1024.55,478.306 1014.89,483.139 1005.5,488.5C 1002.79,467.597 1000.79,446.597 999.5,425.5C 999.833,423.5 1000.17,421.5 1000.5,419.5C 1031.8,403.504 1064.8,393.838 1099.5,390.5 Z M 1129.5,574.5 C 1130.83,574.5 1132.17,574.5 1133.5,574.5C 1133.67,599.836 1133.5,625.169 1133,650.5C 1122.45,663.104 1109.12,670.771 1093,673.5C 1070.92,673.089 1059.92,661.756 1060,639.5C 1058.85,627.092 1062.18,616.092 1070,606.5C 1086.71,589.898 1106.54,579.231 1129.5,574.5 Z"/></g>
<g><path style="opacity:0.984" fill="#000000" d="M 1479.5,390.5 C 1544,388.827 1581.5,419.827 1592,483.5C 1593.7,493.765 1594.7,504.098 1595,514.5C 1595.5,588.833 1595.67,663.166 1595.5,737.5C 1568.17,737.5 1540.83,737.5 1513.5,737.5C 1513.67,729.493 1513.5,721.493 1513,713.5C 1482.24,735.318 1448.41,742.151 1411.5,734C 1384.46,722.622 1366.96,702.789 1359,674.5C 1343.52,616.656 1361.69,573.156 1413.5,544C 1444.86,527.827 1478.19,518.827 1513.5,517C 1512.91,503.074 1509.41,489.907 1503,477.5C 1492.6,466.513 1479.77,461.846 1464.5,463.5C 1447.1,463.515 1430.44,467.015 1414.5,474C 1404.55,478.306 1394.89,483.139 1385.5,488.5C 1382.73,467.948 1380.73,447.281 1379.5,426.5C 1379.83,424.167 1380.17,421.833 1380.5,419.5C 1411.79,403.508 1444.79,393.842 1479.5,390.5 Z M 1509.5,574.5 C 1510.83,574.5 1512.17,574.5 1513.5,574.5C 1513.67,599.836 1513.5,625.169 1513,650.5C 1502.49,663.09 1489.15,670.757 1473,673.5C 1454.94,674.42 1444.27,666.086 1441,648.5C 1436.46,627.455 1442.63,610.288 1459.5,597C 1474.6,585.916 1491.26,578.416 1509.5,574.5 Z"/></g>
<g><path style="opacity:0.983" fill="#000000" d="M 1754.5,390.5 C 1780.93,389.107 1806.26,393.607 1830.5,404C 1836.17,407.5 1841.83,411 1847.5,414.5C 1847.83,416.833 1848.17,419.167 1848.5,421.5C 1846.83,443.535 1844.83,465.535 1842.5,487.5C 1825.09,473.796 1805.42,464.963 1783.5,461C 1759.09,456.132 1739.59,463.632 1725,483.5C 1710,508.334 1703.16,535.334 1704.5,564.5C 1703.64,589.361 1708.47,613.028 1719,635.5C 1733.91,663.7 1757.08,674.2 1788.5,667C 1808.16,662.003 1826.16,653.503 1842.5,641.5C 1845.33,665.442 1847.16,689.442 1848,713.5C 1829.36,727.069 1808.52,734.902 1785.5,737C 1716.15,744.254 1666.98,716.42 1638,653.5C 1616,594.169 1616,534.836 1638,475.5C 1660.17,424.147 1699,395.814 1754.5,390.5 Z"/></g>
</svg>
