<?xml version="1.0" encoding="UTF-8"?>
<svg width="1756px" height="369px" viewBox="0 0 1756 369" version="1.1" xmlns="http://www.w3.org/2000/svg" xmlns:xlink="http://www.w3.org/1999/xlink">
    <title>Logo</title>
    <g id="Final" stroke="none" stroke-width="1" fill="none" fill-rule="evenodd">
        <g id="White" transform="translate(-421, -453)" fill-rule="nonzero">
            <g id="Logo" transform="translate(421, 453)">
                <path d="M33.9172974,368.135307 C29.1079287,368.135307 24.8573951,367.237784 21.1656965,365.442738 C17.473998,363.647692 14.4258066,361.293811 12.0211222,358.381094 C9.61643789,355.468378 7.90606381,352.420187 6.89,349.23652 L11.4622872,347.814031 C13.4266772,352.962087 16.3055246,356.907802 20.0988295,359.651174 C23.8921344,362.394547 28.4644216,363.766233 33.815691,363.766233 C37.4057831,363.766233 40.5894497,363.13966 43.3666908,361.886515 C46.1439319,360.633369 48.3454035,358.855258 49.9711056,356.55218 C51.5968077,354.249102 52.4096587,351.471861 52.4096587,348.220456 C52.4096587,344.088464 51.2073166,340.887863 48.8026322,338.618653 C46.3979479,336.349444 43.6037724,334.774545 40.4201058,333.893957 L26.2968188,329.829701 C20.4713863,328.136262 16.3055246,325.494496 13.7992339,321.904404 C11.2929432,318.314312 10.0397978,314.250056 10.0397978,309.711638 C10.0397978,305.782858 10.988124,302.345175 12.8847765,299.39859 C14.7814289,296.452005 17.3554573,294.148927 20.6068615,292.489356 C23.8582656,290.829785 27.5160954,290 31.5803506,290 C35.780081,290 39.5564515,290.829785 42.9094621,292.489356 C46.2624727,294.148927 49.1074514,296.31653 51.4443981,298.992165 C53.7813449,301.667799 55.4239814,304.563581 56.3723076,307.67951 L51.8000205,309.102 C50.0388432,304.292631 47.3632085,300.634801 43.7731163,298.12851 C40.1830242,295.62222 36.1526378,294.369074 31.681957,294.369074 C28.566028,294.369074 25.7379837,294.995647 23.1978242,296.248792 C20.6576646,297.501938 18.6424714,299.280049 17.1522445,301.583127 C15.6620176,303.886205 14.9169041,306.629578 14.9169041,309.813244 C14.9169041,313.538812 15.8990991,316.620872 17.8634892,319.059425 C19.8278792,321.497978 23.3841025,323.496237 28.5321592,325.054201 L41.3345632,328.915244 C46.2794071,330.405471 50.1743184,332.82709 53.019297,336.1801 C55.8642757,339.533111 57.286765,343.580432 57.286765,348.322063 C57.286765,352.250843 56.2707012,355.688525 54.2385736,358.63511 C52.206446,361.581695 49.4292049,363.901708 45.9068503,365.595148 C42.3844958,367.288587 38.3879781,368.135307 33.9172974,368.135307 Z M135.422072,368.135307 C130.341753,368.135307 125.549319,367.186981 121.044769,365.290328 C116.54022,363.393676 112.594505,360.701107 109.207626,357.212621 C105.820746,353.724135 103.162046,349.592143 101.231525,344.816643 C99.3010036,340.041143 98.335743,334.774545 98.335743,329.01685 C98.335743,323.259155 99.3010036,318.009492 101.231525,313.267861 C103.162046,308.52623 105.837681,304.411172 109.258429,300.922686 C112.679177,297.4342 116.624892,294.741631 121.095572,292.844979 C125.566253,290.948326 130.341753,290 135.422072,290 C140.502391,290 145.277891,290.948326 149.748572,292.844979 C154.219253,294.741631 158.164967,297.4342 161.585715,300.922686 C165.006463,304.411172 167.682098,308.543165 169.612619,313.318664 C171.543141,318.094164 172.508401,323.326893 172.508401,329.01685 C172.508401,334.774545 171.543141,340.041143 169.612619,344.816643 C167.682098,349.592143 165.023398,353.724135 161.636518,357.212621 C158.249639,360.701107 154.303925,363.393676 149.799375,365.290328 C145.294825,367.186981 140.502391,368.135307 135.422072,368.135307 Z M135.422072,363.258201 C140.163703,363.258201 144.498909,362.360678 148.427689,360.565632 C152.356469,358.770586 155.743348,356.281229 158.588327,353.097563 C161.433306,349.913896 163.617843,346.256066 165.141939,342.124074 C166.666034,337.992081 167.428082,333.623006 167.428082,329.01685 C167.428082,324.478432 166.666034,320.160161 165.141939,316.062037 C163.617843,311.963913 161.45024,308.323017 158.63913,305.139351 C155.82802,301.955684 152.458075,299.449393 148.529295,297.620479 C144.600515,295.791564 140.231441,294.877106 135.422072,294.877106 C130.680441,294.877106 126.345235,295.791564 122.416455,297.620479 C118.487675,299.449393 115.100796,301.955684 112.255817,305.139351 C109.410839,308.323017 107.226301,311.963913 105.702206,316.062037 C104.17811,320.160161 103.416062,324.478432 103.416062,329.01685 C103.416062,333.623006 104.17811,337.992081 105.702206,342.124074 C107.226301,346.256066 109.410839,349.913896 112.255817,353.097563 C115.100796,356.281229 118.487675,358.770586 122.416455,360.565632 C126.345235,362.360678 130.680441,363.258201 135.422072,363.258201 Z M215.79272,366.916031 L215.79272,291.219277 L261.515591,291.219277 L261.515591,295.791564 L220.873039,295.791564 L220.873039,326.679904 L257.451336,326.679904 L257.451336,331.252191 L220.873039,331.252191 L220.873039,366.916031 L215.79272,366.916031 Z M315.062154,366.916031 L315.062154,295.791564 L293.623208,295.791564 L293.623208,291.219277 L341.378207,291.219277 L341.378207,295.791564 L320.142473,295.791564 L320.142473,366.916031 L315.062154,366.916031 Z M393.908706,366.916031 L371.250483,291.219277 L376.737227,291.219277 L397.668142,362.44535 L395.026376,362.343743 L416.770141,291.219277 L421.647248,291.219277 L443.391013,362.343743 L440.749247,362.44535 L461.680162,291.219277 L467.166906,291.219277 L444.508683,366.916031 L439.631577,366.916031 L417.786205,295.181925 L420.631184,295.181925 L398.785812,366.916031 L393.908706,366.916031 Z M493.990991,366.916031 L522.034352,291.219277 L526.911459,291.219277 L554.95482,366.916031 L549.366469,366.916031 L542.050809,346.899573 L506.895001,346.899573 L499.579342,366.916031 L493.990991,366.916031 Z M508.520704,342.327286 L540.425107,342.327286 L523.253629,295.385138 L525.692182,295.385138 L508.520704,342.327286 Z M592.650787,366.916031 L592.650787,291.219277 L617.442744,291.219277 C622.184375,291.219277 626.350237,292.167603 629.940329,294.064255 C633.530421,295.960908 636.341531,298.619608 638.373659,302.040356 C640.405786,305.461104 641.42185,309.406819 641.42185,313.8775 C641.42185,319.364244 639.897754,324.038138 636.849563,327.89918 C633.801371,331.760223 629.703247,334.334251 624.555191,335.621265 L642.641127,366.916031 L636.64635,366.916031 L617.442744,333.284318 L622.929489,336.434116 L597.731106,336.434116 L597.731106,366.916031 L592.650787,366.916031 Z M597.731106,331.861829 L617.442744,331.861829 C621.168311,331.861829 624.43665,331.099781 627.24776,329.575685 C630.05887,328.05159 632.277276,325.917856 633.902978,323.174483 C635.52868,320.431111 636.341531,317.298248 636.341531,313.775893 C636.341531,310.185801 635.545614,307.052938 633.953781,304.377303 C632.361948,301.701668 630.143542,299.601803 627.298563,298.077707 C624.453584,296.553612 621.168311,295.791564 617.442744,295.791564 L597.731106,295.791564 L597.731106,331.861829 Z M682.572434,366.916031 L682.572434,291.219277 L729.31137,291.219277 L729.31137,295.791564 L687.652753,295.791564 L687.652753,326.679904 L727.279242,326.679904 L727.279242,331.252191 L687.652753,331.252191 L687.652753,362.343743 L729.31137,362.343743 L729.31137,366.916031 L682.572434,366.916031 Z M812.018964,366.916031 L812.018964,291.219277 L858.757899,291.219277 L858.757899,295.791564 L817.099283,295.791564 L817.099283,326.679904 L856.725772,326.679904 L856.725772,331.252191 L817.099283,331.252191 L817.099283,362.343743 L858.757899,362.343743 L858.757899,366.916031 L812.018964,366.916031 Z M899.806877,366.916031 L899.806877,291.219277 L903.871132,291.219277 L951.219706,358.990733 L949.594004,358.990733 L949.594004,291.219277 L954.674323,291.219277 L954.674323,366.916031 L950.610068,366.916031 L902.956675,298.738149 L904.887196,298.738149 L904.887196,366.916031 L899.806877,366.916031 Z M1034.13051,368.135307 C1028.84698,368.135307 1024.00374,367.170046 1019.6008,365.239525 C1015.19786,363.309004 1011.37068,360.5995 1008.11928,357.111015 C1004.86788,353.622529 1002.36158,349.507471 1000.60041,344.765839 C998.83923,340.024208 997.958641,334.808414 997.958641,329.118457 C997.958641,323.428499 998.856164,318.212705 1000.65121,313.471074 C1002.44626,308.729443 1004.96948,304.59745 1008.22089,301.075096 C1011.47229,297.552741 1015.29946,294.826303 1019.70241,292.895782 C1024.10535,290.965261 1028.94859,290 1034.23212,290 C1039.44791,290 1044.12181,290.931392 1048.2538,292.794175 C1052.38579,294.656959 1055.84041,296.993906 1058.61765,299.805016 C1061.39489,302.616126 1063.39315,305.478039 1064.61243,308.390755 L1059.83693,310.524489 C1057.60159,305.782858 1054.29938,301.989553 1049.93031,299.144574 C1045.56123,296.299596 1040.3285,294.877106 1034.23212,294.877106 C1028.20347,294.877106 1022.83527,296.31653 1018.12751,299.195377 C1013.41975,302.074225 1009.72805,306.087677 1007.05241,311.235734 C1004.37678,316.38379 1003.03896,322.344698 1003.03896,329.118457 C1003.03896,335.892215 1004.37678,341.853123 1007.05241,347.00118 C1009.72805,352.149236 1013.40281,356.145754 1018.0767,358.990733 C1022.7506,361.835711 1028.10187,363.258201 1034.13051,363.258201 C1039.685,363.258201 1044.62984,362.005055 1048.96504,359.498765 C1053.30025,356.992474 1056.721,353.571726 1059.22729,349.23652 C1061.73358,344.901315 1062.98673,339.99034 1062.98673,334.503595 L1062.98673,331.455403 L1065.22207,334.097169 L1034.23212,334.097169 L1034.23212,329.524882 L1068.06704,329.524882 L1068.06704,334.503595 C1068.06704,339.042013 1067.23726,343.34335 1065.57769,347.407605 C1063.91812,351.471861 1061.58117,355.061953 1058.56685,358.177882 C1055.55253,361.293811 1051.97937,363.732364 1047.84737,365.493541 C1043.71538,367.254718 1039.14309,368.135307 1034.13051,368.135307 Z M1110.3353,366.916031 L1110.3353,291.219277 L1115.41562,291.219277 L1115.41562,366.916031 L1110.3353,366.916031 Z M1160.93528,366.916031 L1160.93528,291.219277 L1164.99953,291.219277 L1212.34811,358.990733 L1210.7224,358.990733 L1210.7224,291.219277 L1215.80272,291.219277 L1215.80272,366.916031 L1211.73847,366.916031 L1164.08507,298.738149 L1166.0156,298.738149 L1166.0156,366.916031 L1160.93528,366.916031 Z M1261.32238,366.916031 L1261.32238,291.219277 L1308.06132,291.219277 L1308.06132,295.791564 L1266.4027,295.791564 L1266.4027,326.679904 L1306.02919,326.679904 L1306.02919,331.252191 L1266.4027,331.252191 L1266.4027,362.343743 L1308.06132,362.343743 L1308.06132,366.916031 L1261.32238,366.916031 Z M1349.11029,366.916031 L1349.11029,291.219277 L1395.84923,291.219277 L1395.84923,295.791564 L1354.19061,295.791564 L1354.19061,326.679904 L1393.8171,326.679904 L1393.8171,331.252191 L1354.19061,331.252191 L1354.19061,362.343743 L1395.84923,362.343743 L1395.84923,366.916031 L1349.11029,366.916031 Z M1436.89821,366.916031 L1436.89821,291.219277 L1461.69016,291.219277 C1466.4318,291.219277 1470.59766,292.167603 1474.18775,294.064255 C1477.77784,295.960908 1480.58895,298.619608 1482.62108,302.040356 C1484.65321,305.461104 1485.66927,309.406819 1485.66927,313.8775 C1485.66927,319.364244 1484.14518,324.038138 1481.09698,327.89918 C1478.04879,331.760223 1473.95067,334.334251 1468.80261,335.621265 L1486.88855,366.916031 L1480.89377,366.916031 L1461.69016,333.284318 L1467.17691,336.434116 L1441.97853,336.434116 L1441.97853,366.916031 L1436.89821,366.916031 Z M1441.97853,331.861829 L1461.69016,331.861829 C1465.41573,331.861829 1468.68407,331.099781 1471.49518,329.575685 C1474.30629,328.05159 1476.5247,325.917856 1478.1504,323.174483 C1479.7761,320.431111 1480.58895,317.298248 1480.58895,313.775893 C1480.58895,310.185801 1479.79304,307.052938 1478.2012,304.377303 C1476.60937,301.701668 1474.39096,299.601803 1471.54598,298.077707 C1468.70101,296.553612 1465.41573,295.791564 1461.69016,295.791564 L1441.97853,295.791564 L1441.97853,331.861829 Z M1526.81986,366.916031 L1526.81986,291.219277 L1531.90017,291.219277 L1531.90017,366.916031 L1526.81986,366.916031 Z M1577.41983,366.916031 L1577.41983,291.219277 L1581.48409,291.219277 L1628.83266,358.990733 L1627.20696,358.990733 L1627.20696,291.219277 L1632.28728,291.219277 L1632.28728,366.916031 L1628.22302,366.916031 L1580.56963,298.738149 L1582.50015,298.738149 L1582.50015,366.916031 L1577.41983,366.916031 Z M1711.74347,368.135307 C1706.45994,368.135307 1701.6167,367.170046 1697.21376,365.239525 C1692.81081,363.309004 1688.98364,360.5995 1685.73224,357.111015 C1682.48083,353.622529 1679.97454,349.507471 1678.21336,344.765839 C1676.45219,340.024208 1675.5716,334.808414 1675.5716,329.118457 C1675.5716,323.428499 1676.46912,318.212705 1678.26417,313.471074 C1680.05921,308.729443 1682.58244,304.59745 1685.83384,301.075096 C1689.08525,297.552741 1692.91242,294.826303 1697.31536,292.895782 C1701.71831,290.965261 1706.56154,290 1711.84508,290 C1717.06087,290 1721.73476,290.931392 1725.86676,292.794175 C1729.99875,294.656959 1733.45337,296.993906 1736.23061,299.805016 C1739.00785,302.616126 1741.00611,305.478039 1742.22538,308.390755 L1737.44988,310.524489 C1735.21454,305.782858 1731.91234,301.989553 1727.54326,299.144574 C1723.17419,296.299596 1717.94146,294.877106 1711.84508,294.877106 C1705.81643,294.877106 1700.44823,296.31653 1695.74046,299.195377 C1691.0327,302.074225 1687.341,306.087677 1684.66537,311.235734 C1681.98973,316.38379 1680.65192,322.344698 1680.65192,329.118457 C1680.65192,335.892215 1681.98973,341.853123 1684.66537,347.00118 C1687.341,352.149236 1691.01577,356.145754 1695.68966,358.990733 C1700.36355,361.835711 1705.71482,363.258201 1711.74347,363.258201 C1717.29795,363.258201 1722.24279,362.005055 1726.578,359.498765 C1730.91321,356.992474 1734.33395,353.571726 1736.84024,349.23652 C1739.34654,344.901315 1740.59968,339.99034 1740.59968,334.503595 L1740.59968,331.455403 L1742.83502,334.097169 L1711.84508,334.097169 L1711.84508,329.524882 L1745.68,329.524882 L1745.68,334.503595 C1745.68,339.042013 1744.85021,343.34335 1743.19064,347.407605 C1741.53107,351.471861 1739.19413,355.061953 1736.1798,358.177882 C1733.16548,361.293811 1729.59232,363.732364 1725.46033,365.493541 C1721.32834,367.254718 1716.75605,368.135307 1711.74347,368.135307 Z" id="SOFTWARE-ENGINEERING" fill="#82919B"></path>
                <g id="Squircles">
                    <path d="M1679.48979,1.40155459 C1679.72981,1.41876154 1679.96854,1.44014651 1680.2059,1.46563329 L1679.48979,1.4115242 C1695.62062,2.56799913 1713.74537,8.45006988 1734.90089,19.3967032 C1744.68108,24.4612659 1748.50941,36.4846173 1743.45482,46.2648061 C1739.9156,53.1139291 1732.94684,57.041956 1725.72885,57.041956 C1722.64824,57.041956 1719.51778,56.324144 1716.58671,54.8087631 C1700.55558,46.5140464 1687.11654,41.9379947 1676.63848,41.1803042 C1659.98923,39.9939205 1648.02569,42.2271134 1642.03396,47.6705213 C1640.51858,49.0463277 1635.91262,53.2235949 1635.59359,66.6626311 C1635.49389,70.6704149 1635.1948,82.8532801 1674.40529,91.347389 C1674.58626,91.3866359 1674.76612,91.4282276 1674.94485,91.4721253 L1674.25574,91.3274498 C1698.52178,96.3920124 1715.80908,102.782533 1728.65991,111.436156 C1750.97004,126.46236 1755.66262,146.029888 1755.66759,159.806733 L1755.66759,159.81868 C1755.66759,176.836807 1749.08765,192.628672 1737.14405,204.263208 C1727.33395,213.834035 1709.25905,225 1678.39313,225 C1677.44143,225 1676.48235,224.992626 1675.50955,224.971538 L1675.55179,224.970091 C1675.38231,224.970091 1675.20286,224.970091 1675.03337,224.960122 C1640.73791,224.082796 1616.76099,211.261875 1597.81873,198.849709 C1588.60681,192.808125 1586.03465,180.445806 1592.07624,171.243855 C1598.11782,162.031934 1610.47017,159.459774 1619.68209,165.501359 C1634.5183,175.227429 1651.53981,184.316528 1675.43927,185.083602 C1675.6457,185.082457 1675.85265,185.085434 1676.06024,185.091645 C1691.13429,185.470491 1702.61929,182.230367 1709.3089,175.710241 C1714.66258,170.486165 1715.78914,164.18537 1715.78914,159.81868 L1715.78875,159.494961 C1715.76932,154.053896 1714.80007,140.581951 1666.44728,130.428967 C1666.28016,130.397788 1666.11561,130.364241 1665.95106,130.32857 C1647.49731,126.330756 1633.83894,121.216345 1622.97206,114.257556 C1599.83259,99.4227743 1595.37618,79.6630044 1595.71514,65.6955788 C1596.20365,45.4572675 1602.76366,29.4560412 1615.2157,18.1505018 C1629.68161,5.01055393 1651.31567,-0.622276533 1679.48979,1.40155459 Z M1536.80738,6 C1547.85738,6 1556.80738,14.95 1556.80738,26 C1556.80738,37.05 1547.85738,46 1536.80738,46 L1440.80738,46 L1440.80738,93 L1519.80738,93 C1530.85738,93 1539.80738,101.95 1539.80738,113 C1539.80738,124.05 1530.85738,133 1519.80738,133 L1440.80738,133 L1440.80738,180 L1536.80738,180 C1547.85738,180 1556.80738,188.95 1556.80738,200 C1556.80738,211.05 1547.85738,220 1536.80738,220 L1420.80738,220 C1409.75738,220 1400.80738,211.05 1400.80738,200 L1400.80738,26 C1400.80738,14.95 1409.75738,6 1420.80738,6 L1536.80738,6 Z M1237.80738,6 C1248.85738,6 1257.80738,14.95 1257.80738,26 L1257.80738,180 L1340.80738,180 C1351.85738,180 1360.80738,188.95 1360.80738,200 C1360.80738,211.05 1351.84738,220 1340.80738,220 L1237.80738,220 C1226.75738,220 1217.80738,211.05 1217.80738,200 L1217.80738,26 C1217.80738,14.95 1226.75738,6 1237.80738,6 Z M1103.43704,3 C1132.0196,3 1159.10726,13.9127973 1179.69706,33.7352208 C1187.63002,41.3691959 1187.8692,53.9861835 1180.23523,61.9191393 C1176.32855,65.9852775 1171.10635,68.0283126 1165.88415,68.0283126 C1160.91111,68.0283126 1155.92809,66.1746319 1152.06128,62.4573046 C1139.06141,49.9411111 1121.99452,42.997531 1103.95919,42.8660032 C1103.78602,42.8718196 1103.61179,42.8740657 1103.43704,42.8740657 C1065.15554,42.8740657 1033.9361,73.7106978 1033.31554,111.847124 L1033.30612,113.004983 C1033.30612,151.286478 1064.14275,182.505925 1102.27918,183.126486 L1103.43704,183.1359 C1121.33602,183.1359 1138.36796,176.398867 1151.41348,164.160589 C1159.43613,156.626274 1172.05312,157.024915 1179.58744,165.057531 C1187.12175,173.080181 1186.72311,185.697169 1178.69049,193.231484 C1158.23024,212.426048 1131.51133,223 1103.43704,223 C1103.31059,223 1103.18441,222.998824 1103.05852,222.996482 L1103.43704,223 C1042.91033,223 993.647912,173.863836 993.442667,113.384377 L993.442023,113.004983 C993.442023,112.87853 993.443199,112.752353 993.445541,112.626463 L993.442023,113.004983 C993.442023,52.6181355 1042.35136,3.44358814 1102.63856,3.01281797 C1102.90406,3.00524729 1103.16994,3 1103.43704,3 Z M890.57501,6 C890.701854,6 890.828421,6.00117939 890.9547,6.00352779 L890.57501,6 C929.653184,6 961.441699,37.7885146 961.441699,76.8666885 C961.434485,105.059472 944.887061,129.458105 920.998774,140.863242 L957.261894,187.771506 C964.021578,196.511098 962.411653,209.070511 953.672062,215.820195 C950.022232,218.630064 945.722433,220 941.452633,220 C935.472912,220 929.553189,217.330125 925.613373,212.230363 L875.752858,147.733 L826.827858,147.733 L826.827989,199.990935 C826.827989,211.040419 817.868408,219.99 806.828924,219.99 C795.77944,219.99 786.829858,211.040419 786.829858,199.990935 L786.829858,25.9990655 C786.829858,14.9495818 795.77944,6 806.828924,6 L890.57501,6 Z M890.57501,107.735246 C907.594215,107.735246 921.443568,93.8858932 921.443568,76.8666885 C921.443568,59.8474838 907.594215,45.9981309 890.57501,45.9981309 L826.827858,45.998 L826.827858,107.735 L890.57501,107.735246 Z M718.829858,220 C707.779858,220 698.829858,211.05 698.829858,200 L698.829858,26 C698.829858,14.95 707.779858,6 718.829858,6 C729.879858,6 738.829858,14.95 738.829858,26 L738.829858,200 C738.829858,211.04 729.879858,220 718.829858,220 Z M630.829858,4 C641.879858,4 650.829858,12.95 650.829858,24 L650.829858,136.33 C650.829858,136.603842 650.824345,136.876404 650.813425,137.147581 L650.81986,136.33 C650.829858,182.39 608.189858,221.31 557.709858,221.31 C507.379858,221.31 464.859858,182.39 464.859858,136.33 C464.859858,136.125296 464.86293,135.921312 464.869029,135.718093 L464.869858,24 C464.869858,12.95 473.819858,4 484.869858,4 C495.919858,4 504.869858,12.95 504.869858,24 L504.869858,136.33 C504.869858,136.478863 504.868229,136.627348 504.864988,136.775438 L504.859858,136.33 L504.867247,137.0479 C505.354203,160.708298 529.841358,181.31 557.709858,181.31 C571.339858,181.31 585.079858,176.16 595.399858,167.19 C605.339858,158.54 610.819858,147.59 610.819858,136.33 C610.819858,136.112544 610.823324,135.895901 610.830204,135.680123 L610.829858,24 C610.829858,12.95 619.779858,4 630.829858,4 Z M90.682405,1.40155459 C90.9224312,1.41876154 91.1611582,1.44014651 91.3985201,1.46563329 L90.682405,1.4115242 C106.813236,2.56799913 124.93799,8.45006988 146.093505,19.3967032 C155.873694,24.4612659 159.702025,36.4846173 154.647432,46.2648061 C151.10822,53.1139291 144.139462,57.041956 136.921463,57.041956 C133.840853,57.041956 130.710395,56.324144 127.779329,54.8087631 C111.748194,46.5140464 98.3091578,41.9379947 87.8310962,41.1803042 C71.1818451,39.9939205 59.2183113,42.2271134 53.2265749,47.6705213 C51.7111939,49.0463277 47.1052334,53.2235949 46.7862059,66.6626311 C46.6865097,70.6704149 46.3874214,82.8532801 85.5979032,91.347389 C85.7788751,91.3866359 85.958738,91.4282276 86.1374671,91.4721253 L85.448359,91.3274498 C109.714393,96.3920124 127.0017,102.782533 139.852529,111.436156 C162.162655,126.46236 166.855233,146.029888 166.860202,159.806733 L166.860206,159.81868 C166.860206,176.836807 160.280263,192.628672 148.336668,204.263208 C138.52657,213.834035 120.451665,225 89.5857478,225 C88.6340421,225 87.6749629,224.992626 86.7021686,224.971538 L86.7444085,224.970091 C86.5749251,224.970091 86.3954721,224.970091 86.2259887,224.960122 C51.9305254,224.082796 27.9536098,211.261875 9.01134811,198.849709 C-0.200572862,192.808125 -2.77273261,180.445806 3.26885192,171.243855 C9.31043645,162.031934 21.662785,159.459774 30.874706,165.501359 C45.7109164,175.227429 62.7324275,184.316528 86.6318826,185.083602 C86.8383192,185.082457 87.0452638,185.085434 87.2528587,185.091645 C102.326911,185.470491 113.811904,182.230367 120.501513,175.710241 C125.855194,170.486165 126.98176,164.18537 126.98176,159.81868 L126.981363,159.494961 C126.961934,154.053896 125.992683,140.581951 77.6399004,130.428967 C77.4727724,130.397788 77.3082225,130.364241 77.1436727,130.32857 C58.6899219,126.330756 45.0315542,121.216345 34.1646778,114.257556 C11.0252096,99.4227743 6.56879331,79.6630044 6.9077601,65.6955788 C7.39627106,45.4572675 13.9562754,29.4560412 26.4083201,18.1505018 C40.8742263,5.01055393 62.5082831,-0.622276533 90.682405,1.40155459 Z" id="Text" fill="#2F4858"></path>
                    <g id="Q" transform="translate(198.86, 0)">
                        <path d="M112.999826,0 C196.434262,0 225.999652,29.5769801 225.999652,113.000174 C225.999652,129.789523 224.802136,144.397901 222.208989,157.023138 C216.340876,155.021841 209.589867,154 202.001662,154 L181.913492,154.001368 C184.554189,144.098402 185.999652,130.720938 185.999652,113.000174 C185.999652,79.901542 180.957006,61.9549928 172.502197,53.4994764 C164.047087,45.043658 146.100337,40 112.999826,40 C79.899315,40 61.9525654,45.043658 53.497455,53.4994764 C45.0426465,61.9549929 40,79.901542 40,113.000174 C40,146.098618 45.0426328,164.045058 53.4974205,172.500533 C61.952542,180.956341 79.8993177,186 112.999826,186 C118.352506,186 123.308915,185.868108 127.892995,185.611223 C126.639009,190.536743 126.001699,196.007346 126.001699,202.000037 L126.003742,202.613998 C126.06721,211.423039 127.525279,219.0816 130.29837,225.523668 C124.811686,225.844616 119.047257,226 112.999826,226 C29.5653904,226 0,196.42302 0,113.000174 C0,29.5769801 29.5653904,0 112.999826,0 Z" id="Squircle" fill="#2F4858"></path>
                        <path d="M202.001662,178 L174.001662,178 C156.281074,178 150.001699,184.281836 150.001699,202.000037 L150.003588,202.528155 C150.128431,219.843172 156.45828,226 174.001662,226 L174.265699,225.999 L201.868972,226 L202.001662,226 C219.72225,226 226.001625,219.718163 226.001625,202.000037 C226.001625,184.281836 219.72225,178 202.001662,178 Z" id="Tail" fill="#006DC0"></path>
                    </g>
                </g>
            </g>
        </g>
    </g>
</svg>