<?xml version="1.0" encoding="utf-8"?>
<!-- Generator: Adobe Illustrator 23.0.4, SVG Export Plug-In . SVG Version: 6.00 Build 0)  -->
<svg version="1.1" id="Layer_1" xmlns="http://www.w3.org/2000/svg" xmlns:xlink="http://www.w3.org/1999/xlink" x="0px" y="0px"
	 viewBox="0 0 400 60" style="enable-background:new 0 0 400 60;" xml:space="preserve">
<style type="text/css">
	.st0{fill:#0055FF;}
	.st1{display:none;}
	.st2{display:inline;}
	.st3{fill:#FFFFFF;}
</style>
<g id="blue">
	<g>
		<path class="st0" d="M146.8,46.7h-8V43h-0.1c-0.3,0.5-0.7,1-1.1,1.6c-0.5,0.5-1,1-1.7,1.4s-1.4,0.7-2.3,1
			c-0.9,0.3-1.8,0.4-2.8,0.4c-2.1,0-3.8-0.3-5.2-1c-1.3-0.7-2.3-1.6-3.1-2.7c-0.7-1.2-1.2-2.5-1.5-4.1c-0.2-1.6-0.4-3.3-0.4-5.1v-15
			h8.4v13.3c0,0.8,0,1.6,0.1,2.4c0.1,0.8,0.2,1.6,0.5,2.3c0.3,0.7,0.7,1.3,1.3,1.7c0.6,0.4,1.4,0.7,2.5,0.7s2-0.2,2.6-0.6
			c0.7-0.4,1.2-0.9,1.5-1.6c0.4-0.7,0.6-1.4,0.7-2.2c0.1-0.8,0.2-1.7,0.2-2.6V19.6h8.4V46.7z"/>
		<path class="st0" d="M152.7,19.6h8v3.7h0.1c0.3-0.5,0.6-1,1.1-1.6c0.5-0.5,1.1-1,1.7-1.4c0.7-0.4,1.4-0.7,2.3-1
			c0.9-0.3,1.8-0.4,2.8-0.4c2.1,0,3.8,0.3,5.1,1c1.3,0.7,2.3,1.6,3,2.7s1.2,2.5,1.5,4.1c0.3,1.6,0.4,3.3,0.4,5.1v15h-8.4V33.4
			c0-0.8,0-1.6-0.1-2.4c-0.1-0.8-0.2-1.6-0.5-2.3c-0.3-0.7-0.7-1.3-1.3-1.7c-0.6-0.4-1.4-0.7-2.5-0.7c-1.1,0-2,0.2-2.6,0.6
			c-0.7,0.4-1.2,0.9-1.5,1.6c-0.4,0.7-0.6,1.4-0.7,2.2c-0.1,0.8-0.2,1.7-0.2,2.6v13.5h-8.4V19.6z"/>
		<path class="st0" d="M184.2,11c0-1.3,0.5-2.5,1.4-3.4c0.9-0.9,2.1-1.4,3.4-1.4s2.5,0.5,3.4,1.4c0.9,0.9,1.4,2.1,1.4,3.4
			s-0.5,2.5-1.4,3.4c-0.9,0.9-2.1,1.4-3.4,1.4s-2.5-0.5-3.4-1.4C184.7,13.5,184.2,12.4,184.2,11z M184.9,19.6h8.4v27.1h-8.4V19.6z"
			/>
		<path class="st0" d="M196.5,19.6h9l6.9,18.4h0.1l6.4-18.4h8.4l-10.7,27.1h-8.9L196.5,19.6z"/>
		<path class="st0" d="M247.4,43.3h-0.1c-0.9,1.5-2.2,2.5-3.7,3.1c-1.5,0.6-3.2,0.9-4.9,0.9c-1.3,0-2.5-0.2-3.7-0.5
			c-1.2-0.4-2.2-0.9-3.1-1.6c-0.9-0.7-1.6-1.6-2.1-2.6c-0.5-1-0.8-2.3-0.8-3.6c0-1.6,0.3-2.9,0.9-4s1.4-2,2.3-2.7
			c1-0.7,2.1-1.3,3.4-1.6c1.3-0.4,2.6-0.7,3.9-0.9c1.4-0.2,2.7-0.3,4.1-0.3c1.4,0,2.6-0.1,3.8-0.1c0-1.5-0.5-2.7-1.6-3.5
			c-1.1-0.9-2.3-1.3-3.8-1.3c-1.4,0-2.6,0.3-3.8,0.9c-1.1,0.6-2.1,1.4-3,2.4l-4.5-4.6c1.6-1.5,3.4-2.5,5.5-3.3
			c2.1-0.7,4.2-1.1,6.5-1.1c2.5,0,4.5,0.3,6.1,0.9c1.6,0.6,2.8,1.5,3.8,2.7c0.9,1.2,1.6,2.7,2,4.4c0.4,1.7,0.6,3.7,0.6,6v13.8h-7.7
			V43.3z M245.3,34.8c-0.6,0-1.4,0-2.4,0.1c-0.9,0.1-1.9,0.2-2.7,0.5c-0.9,0.3-1.6,0.7-2.2,1.2c-0.6,0.5-0.9,1.2-0.9,2.2
			c0,1,0.4,1.7,1.3,2.2c0.9,0.5,1.7,0.7,2.7,0.7c0.8,0,1.6-0.1,2.4-0.3c0.8-0.2,1.4-0.5,2-0.9c0.6-0.4,1.1-0.9,1.4-1.6
			c0.4-0.6,0.5-1.4,0.5-2.2v-1.8H245.3z"/>
		<path class="st0" d="M260.4,4.5h8.4v42.2h-8.4V4.5z"/>
		<path class="st0" d="M300.5,42c-1.3,1.7-3,3-5.1,4c-2,0.9-4.2,1.4-6.4,1.4c-2.1,0-4-0.3-5.9-1c-1.8-0.7-3.4-1.6-4.8-2.9
			c-1.4-1.2-2.4-2.7-3.2-4.5c-0.8-1.7-1.2-3.7-1.2-5.9c0-2.2,0.4-4.1,1.2-5.9c0.8-1.7,1.9-3.2,3.2-4.5c1.4-1.2,3-2.2,4.8-2.9
			c1.8-0.7,3.8-1,5.9-1c1.9,0,3.7,0.3,5.3,1c1.6,0.7,2.9,1.6,4,2.9c1.1,1.2,1.9,2.7,2.5,4.5c0.6,1.7,0.9,3.7,0.9,5.9v2.6h-19.4
			c0.3,1.6,1.1,2.9,2.2,3.8c1.1,0.9,2.5,1.4,4.1,1.4c1.4,0,2.5-0.3,3.5-0.9s1.8-1.4,2.5-2.4L300.5,42z M293.4,30.1
			c0-1.4-0.4-2.6-1.4-3.6c-1-1-2.2-1.5-3.7-1.5c-0.9,0-1.7,0.1-2.5,0.4c-0.7,0.3-1.3,0.7-1.8,1.1c-0.5,0.5-0.9,1-1.2,1.6
			c-0.3,0.6-0.4,1.3-0.5,1.9H293.4z"/>
		<path class="st0" d="M306.9,19.6h8v3.7h0.1c0.3-0.5,0.6-1,1.1-1.6c0.5-0.5,1.1-1,1.7-1.4c0.7-0.4,1.4-0.7,2.3-1
			c0.9-0.3,1.8-0.4,2.8-0.4c2.1,0,3.8,0.3,5.1,1c1.3,0.7,2.3,1.6,3,2.7s1.2,2.5,1.5,4.1c0.3,1.6,0.4,3.3,0.4,5.1v15h-8.4V33.4
			c0-0.8,0-1.6-0.1-2.4c-0.1-0.8-0.2-1.6-0.5-2.3c-0.3-0.7-0.7-1.3-1.3-1.7c-0.6-0.4-1.4-0.7-2.5-0.7c-1.1,0-2,0.2-2.6,0.6
			c-0.7,0.4-1.2,0.9-1.5,1.6c-0.4,0.7-0.6,1.4-0.7,2.2c-0.1,0.8-0.2,1.7-0.2,2.6v13.5h-8.4V19.6z"/>
		<path class="st0" d="M357.3,28.3c-0.4-0.6-1-1.1-1.7-1.5c-0.7-0.4-1.5-0.6-2.4-0.6c-2.1,0-3.8,0.6-4.9,1.9c-1.2,1.3-1.8,2.9-1.8,5
			s0.6,3.7,1.8,5c1.2,1.3,2.8,1.9,4.9,1.9c0.9,0,1.7-0.2,2.4-0.6c0.7-0.4,1.2-0.9,1.7-1.5l5.5,5.8c-1.3,1.3-2.8,2.3-4.6,2.8
			c-1.8,0.5-3.5,0.8-5.1,0.8c-2.1,0-4-0.3-5.9-1c-1.8-0.7-3.4-1.6-4.8-2.9c-1.4-1.2-2.4-2.7-3.2-4.5c-0.8-1.7-1.2-3.7-1.2-5.9
			c0-2.2,0.4-4.1,1.2-5.9c0.8-1.7,1.9-3.2,3.2-4.5c1.4-1.2,3-2.2,4.8-2.9c1.8-0.7,3.8-1,5.9-1c1.6,0,3.3,0.3,5.1,0.8
			c1.8,0.5,3.3,1.5,4.6,2.8L357.3,28.3z"/>
		<path class="st0" d="M391.5,42c-1.3,1.7-3,3-5.1,4c-2,0.9-4.2,1.4-6.4,1.4c-2.1,0-4-0.3-5.9-1c-1.8-0.7-3.4-1.6-4.8-2.9
			c-1.4-1.2-2.4-2.7-3.2-4.5c-0.8-1.7-1.2-3.7-1.2-5.9c0-2.2,0.4-4.1,1.2-5.9c0.8-1.7,1.9-3.2,3.2-4.5c1.4-1.2,3-2.2,4.8-2.9
			c1.8-0.7,3.8-1,5.9-1c1.9,0,3.7,0.3,5.3,1c1.6,0.7,2.9,1.6,4,2.9c1.1,1.2,1.9,2.7,2.5,4.5c0.6,1.7,0.9,3.7,0.9,5.9v2.6h-19.4
			c0.3,1.6,1.1,2.9,2.2,3.8c1.1,0.9,2.5,1.4,4.1,1.4c1.4,0,2.5-0.3,3.5-0.9c0.9-0.6,1.8-1.4,2.5-2.4L391.5,42z M384.4,30.1
			c0-1.4-0.4-2.6-1.4-3.6c-1-1-2.2-1.5-3.7-1.5c-0.9,0-1.7,0.1-2.5,0.4c-0.7,0.3-1.3,0.7-1.8,1.1c-0.5,0.5-0.9,1-1.2,1.6
			c-0.3,0.6-0.4,1.3-0.5,1.9H384.4z"/>
	</g>
	<path class="st0" d="M112.7,6.7c-0.3-0.4-0.8-0.7-1.3-0.7c-1.6-0.1-3.3-0.2-4.9-0.2c-21.4,0-33.3,9.1-38.1,14
		c-1.7-2.4-4.3-4.2-4.7-4.5c-0.3-0.2-0.7-0.3-1-0.3c-0.3,0-0.6,0.1-0.9,0.2c-0.5,0.3-0.9,0.8-0.9,1.4c-2.6-1.7-6.6-4-9.2-4.3
		c-0.1,0-0.2,0-0.2,0c-0.5,0-1,0.2-1.4,0.6c-0.4,0.5-0.5,1.1-0.3,1.7c0.3,1,0.7,2.5,0.8,3.9c-5.5-5-17.1-12.7-36.8-12.7
		c-1.6,0-3.2,0.1-4.9,0.2c-0.5,0-1,0.3-1.3,0.7c-0.3,0.4-0.4,1-0.3,1.5c0.2,0.6,3.9,14.8,28.1,32.1c-0.3,1.1-0.5,2.2-0.5,3.4
		c0,6.5,5.3,11.8,11.8,11.8c2.2,0,4.3-0.6,6.1-1.7c2.2,0.4,4.7,0.6,7.4,0.6c2.7,0,5.1-0.2,7.4-0.6c1.8,1.1,3.9,1.7,6.1,1.7
		c6.5,0,11.8-5.3,11.8-11.8c0-1.2-0.2-2.3-0.5-3.4C109.1,22.9,112.8,8.8,113,8.2C113.1,7.6,113,7.1,112.7,6.7z M46.6,53.4
		c-3.9,0-7.2-2.3-8.8-5.5c1.2,0.9,5.2,3.5,11.4,5.1C48.4,53.3,47.5,53.4,46.6,53.4z M51.9,51.8c-8.5-1.7-13.4-5.6-13.4-5.6l2.4-2.1
		l-4.1-0.4c0,0,0,0,0,0l3.1-2.3c-0.8-0.5-1.5-1-2.2-1.5c1.5-3.4,4.9-5.8,8.9-5.8c5.4,0,9.7,4.4,9.7,9.7
		C56.3,47.1,54.6,50.1,51.9,51.8z M60.1,52.6c-1.9,0-3.7-0.1-5.4-0.4c1.8-1.7,3-3.9,3.5-6.4c0,0,0,0,0-0.1c0,0,0.7-1,1.8-1
		c1.1,0,1.8,0.9,1.8,1c0,0,0,0,0.1,0.1c0.5,2.5,1.7,4.7,3.5,6.4C63.8,52.5,62,52.6,60.1,52.6z M73.6,53.4c-0.9,0-1.8-0.1-2.7-0.4
		c6.2-1.6,10.2-4.2,11.4-5.1C80.8,51.2,77.5,53.4,73.6,53.4z M79.3,44.1l2.4,2.1c0,0-4.9,3.9-13.4,5.6c-2.6-1.7-4.4-4.7-4.4-8.1
		c0-5.4,4.4-9.7,9.7-9.7c4,0,7.4,2.4,8.9,5.8c-0.7,0.5-1.5,1-2.2,1.5l3.1,2.3c0,0,0,0,0,0L79.3,44.1z M84.2,38.6
		c-0.4-0.8-0.8-1.5-1.3-2.2C83,36,83,35.5,83,34.7c0-2,0.1-5.4,1.9-8.6c0.1-0.2,0.1-0.5,0-0.7S84.5,25,84.3,25c-0.2,0-4,0.1-6.8,1.4
		c0.5-1.1,1.5-2.8,3.4-4.6c6.4-5.8,17.8-9,26.2-10.5c0.4-0.1,0.7-0.5,0.6-0.9c-0.1-0.4-0.5-0.7-0.9-0.6C76.3,15.5,75.5,27.5,75.5,28
		c0,0.3,0.2,0.6,0.4,0.7c0.3,0.1,0.6,0.1,0.8-0.1c1.5-1.4,4.6-1.8,6.3-2c-1.4,3.1-1.5,6.2-1.5,8.1c0,0.1,0,0.2,0,0.3
		c-2.1-1.9-4.9-3.1-7.9-3.1c-6.3,0-11.5,5-11.8,11.3c-0.5-0.2-1-0.4-1.7-0.4c-0.7,0-1.2,0.2-1.7,0.4c-0.3-6.3-5.5-11.3-11.8-11.3
		c-3,0-5.8,1.2-7.9,3.1c0-0.1,0-0.2,0-0.3c0-1.9-0.1-4.9-1.5-8.1c1.7,0.2,4.8,0.6,6.3,2c0.2,0.2,0.5,0.2,0.8,0.1
		c0.3-0.1,0.4-0.4,0.4-0.7c0-0.5-0.8-12.5-31.4-18.2c-0.4-0.1-0.8,0.2-0.9,0.6c-0.1,0.4,0.2,0.8,0.6,0.9
		c15.3,2.9,22.7,7.3,26.2,10.5c2,1.8,3,3.4,3.4,4.6C40,25.1,36.1,25,35.9,25c-0.3,0-0.5,0.1-0.7,0.4c-0.1,0.2-0.1,0.5,0,0.7
		c1.8,3.2,1.9,6.6,1.9,8.6c0,0.8,0,1.4,0.1,1.8c-0.5,0.7-1,1.4-1.3,2.2C12.4,21.5,9,7.7,9,7.7c1.6-0.1,3.2-0.1,4.7-0.1
		c21.9,0,33.9,9.8,38.5,15.3c0.9-3.1-0.8-8.8-0.8-8.8c2.9,0.4,8.5,3.9,11.3,5.9c0.1-0.9,0.1-1.7,0-3.2c0,0,4.4,3,5.3,6.1
		c4.6-5.5,16.7-15.3,38.5-15.3c1.5,0,3.1,0,4.7,0.1C111.2,7.7,107.9,21.5,84.2,38.6z M54.1,47c-0.1,0-0.2,0.1-0.3,0.1
		c-0.8,0-1.8-1.1-2.4-2.7c-0.7-1.8-0.5-3.4,0.3-3.7c0.8-0.3,2,0.8,2.7,2.6C55.1,45.1,55,46.7,54.1,47z M68.8,44.4
		c-0.6,1.6-1.6,2.7-2.4,2.7c-0.1,0-0.2,0-0.3-0.1c-0.8-0.3-1-2-0.3-3.7c0.3-0.8,0.7-1.6,1.2-2c0.5-0.5,1-0.7,1.5-0.6
		C69.3,41,69.4,42.6,68.8,44.4z M61.8,47.6c0.1,0.2,0.1,0.3,0,0.5c-0.4,1-1.3,1.4-1.4,1.5c-0.1,0-0.2,0.1-0.3,0.1
		c-0.1,0-0.2,0-0.3-0.1c-0.1-0.1-1-0.5-1.4-1.5c-0.1-0.2-0.1-0.3,0-0.5c0.1-0.2,0.2-0.3,0.4-0.3c0.1,0,0.9-0.2,1.3-0.2
		s1.1,0.2,1.3,0.2C61.6,47.3,61.7,47.4,61.8,47.6z"/>
</g>
<g id="white_1_" class="st1">
	<g class="st2">
		<g>
			<path class="st3" d="M46.6,34c-4,0-7.4,2.4-8.9,5.8c0.7,0.5,1.5,1,2.2,1.5l-3.1,2.3c0,0,0,0,0,0l4.1,0.4l-2.4,2.1
				c0,0,4.9,3.9,13.4,5.6c2.6-1.7,4.4-4.7,4.4-8.1C56.3,38.3,52,34,46.6,34z M54.2,47.3c-0.1,0-0.3,0.1-0.4,0.1
				c-0.9,0-2-1.1-2.7-2.9c-0.7-2-0.5-3.7,0.5-4.1c1-0.4,2.3,0.8,3.1,2.8C55.5,45.1,55.3,46.9,54.2,47.3z"/>
		</g>
		<g>
			<path class="st3" d="M62,45.9C62,45.9,62,45.9,62,45.9c-0.1-0.1-0.8-1-1.9-1c-1.1,0-1.8,0.9-1.8,1c0,0,0,0,0,0.1
				c-0.5,2.5-1.7,4.7-3.5,6.4c1.7,0.2,3.5,0.4,5.4,0.4c1.9,0,3.7-0.1,5.4-0.4C63.7,50.6,62.5,48.4,62,45.9z M61.8,48.1
				c-0.4,1-1.3,1.4-1.4,1.5c-0.1,0-0.2,0.1-0.3,0.1c-0.1,0-0.2,0-0.3-0.1c-0.1-0.1-1-0.5-1.4-1.5c-0.1-0.2-0.1-0.3,0-0.5
				c0.1-0.2,0.2-0.3,0.4-0.3c0.1,0,0.9-0.2,1.3-0.2s1.1,0.2,1.3,0.2c0.2,0,0.3,0.2,0.4,0.3C61.8,47.7,61.9,47.9,61.8,48.1z"/>
		</g>
		<g>
			<path class="st3" d="M68,22.9c-0.9-3.1-5.3-6.1-5.3-6.1c0.1,1.5,0.1,2.3,0,3.2c-2.8-2-8.3-5.5-11.3-5.9c0,0,1.8,5.7,0.8,8.8
				C47.3,17,33.8,6.2,9,7.7c0,0,3.4,13.8,27,30.8c0.4-0.9,1-1.7,1.6-2.5C20.3,24.3,13.3,10.5,13.3,10.5C43.5,16.2,44,28,44,28
				c-2.4-2.1-8.1-2.3-8.1-2.3c2.2,4,1.9,8.1,2,9.9c2.2-2.3,5.2-3.8,8.6-3.8c6.3,0,11.5,5,11.8,11.3c0.5-0.2,1-0.4,1.7-0.4
				c0.7,0,1.2,0.2,1.7,0.4c0.3-6.3,5.5-11.3,11.8-11.3c3.4,0,6.5,1.5,8.6,3.8c0.1-1.8-0.2-5.9,2-9.9c0,0-5.7,0.1-8.1,2.3
				c0,0,0.5-11.8,30.8-17.5c0,0-7,13.7-24.3,25.6c0.6,0.8,1.2,1.6,1.6,2.5c23.6-17.1,27-30.8,27-30.8C86.4,6.2,72.9,17,68,22.9z"/>
		</g>
		<g>
			<path class="st3" d="M73.6,34c-5.4,0-9.7,4.4-9.7,9.7c0,3.4,1.7,6.4,4.4,8.1c8.5-1.7,13.4-5.6,13.4-5.6l-2.4-2.1l4.1-0.4
				c0,0,0,0,0,0l-3.1-2.3c0.8-0.5,1.5-1,2.2-1.5C81,36.4,77.6,34,73.6,34z M69,44.5c-0.6,1.7-1.7,2.9-2.7,2.9c-0.1,0-0.3,0-0.4-0.1
				c-1-0.4-1.2-2.1-0.5-4.1c0.3-0.9,0.8-1.6,1.3-2.2c0.6-0.6,1.2-0.8,1.8-0.6C69.6,40.8,69.8,42.5,69,44.5z"/>
		</g>
	</g>
	<path class="st0" d="M112.7,6.7c-0.3-0.4-0.8-0.7-1.3-0.7c-1.6-0.1-3.3-0.2-4.9-0.2c-21.4,0-33.3,9.1-38.1,14
		c-1.7-2.4-4.3-4.2-4.7-4.5c-0.3-0.2-0.7-0.3-1-0.3c-0.3,0-0.6,0.1-0.9,0.2c-0.5,0.3-0.9,0.8-0.9,1.4c-2.6-1.7-6.6-4-9.2-4.3
		c-0.1,0-0.2,0-0.2,0c-0.5,0-1,0.2-1.4,0.6c-0.4,0.5-0.5,1.1-0.3,1.7c0.3,1,0.7,2.5,0.8,3.9c-5.5-5-17.1-12.7-36.8-12.7
		c-1.6,0-3.2,0.1-4.9,0.2c-0.5,0-1,0.3-1.3,0.7c-0.3,0.4-0.4,1-0.3,1.5c0.2,0.6,3.9,14.8,28.1,32.1c-0.3,1.1-0.5,2.2-0.5,3.4
		c0,6.5,5.3,11.8,11.8,11.8c2.2,0,4.3-0.6,6.1-1.7c2.2,0.4,4.7,0.6,7.4,0.6c2.7,0,5.1-0.2,7.4-0.6c1.8,1.1,3.9,1.7,6.1,1.7
		c6.5,0,11.8-5.3,11.8-11.8c0-1.2-0.2-2.3-0.5-3.4C109.1,22.9,112.8,8.8,113,8.2C113.1,7.6,113,7.1,112.7,6.7z M46.6,53.4
		c-3.9,0-7.2-2.3-8.8-5.5c1.2,0.9,5.2,3.5,11.4,5.1C48.4,53.3,47.5,53.4,46.6,53.4z M51.9,51.8c-8.5-1.7-13.4-5.6-13.4-5.6l2.4-2.1
		l-4.1-0.4c0,0,0,0,0,0l3.1-2.3c-0.8-0.5-1.5-1-2.2-1.5c1.5-3.4,4.9-5.8,8.9-5.8c5.4,0,9.7,4.4,9.7,9.7
		C56.3,47.1,54.6,50.1,51.9,51.8z M60.1,52.6c-1.9,0-3.7-0.1-5.4-0.4c1.8-1.7,3-3.9,3.5-6.4c0,0,0,0,0-0.1c0,0,0.7-1,1.8-1
		c1.1,0,1.8,0.9,1.8,1c0,0,0,0,0.1,0.1c0.5,2.5,1.7,4.7,3.5,6.4C63.8,52.5,62,52.6,60.1,52.6z M73.6,53.4c-0.9,0-1.8-0.1-2.7-0.4
		c6.2-1.6,10.2-4.2,11.4-5.1C80.8,51.2,77.5,53.4,73.6,53.4z M79.3,44.1l2.4,2.1c0,0-4.9,3.9-13.4,5.6c-2.6-1.7-4.4-4.7-4.4-8.1
		c0-5.4,4.4-9.7,9.7-9.7c4,0,7.4,2.4,8.9,5.8c-0.7,0.5-1.5,1-2.2,1.5l3.1,2.3c0,0,0,0,0,0L79.3,44.1z M84.2,38.6
		c-0.4-0.8-0.8-1.5-1.3-2.2C83,36,83,35.5,83,34.7c0-2,0.1-5.4,1.9-8.6c0.1-0.2,0.1-0.5,0-0.7S84.5,25,84.3,25c-0.2,0-4,0.1-6.8,1.4
		c0.5-1.1,1.5-2.8,3.4-4.6c6.4-5.8,17.8-9,26.2-10.5c0.4-0.1,0.7-0.5,0.6-0.9c-0.1-0.4-0.5-0.7-0.9-0.6C76.3,15.5,75.5,27.5,75.5,28
		c0,0.3,0.2,0.6,0.4,0.7c0.3,0.1,0.6,0.1,0.8-0.1c1.5-1.4,4.6-1.8,6.3-2c-1.4,3.1-1.5,6.2-1.5,8.1c0,0.1,0,0.2,0,0.3
		c-2.1-1.9-4.9-3.1-7.9-3.1c-6.3,0-11.5,5-11.8,11.3c-0.5-0.2-1-0.4-1.7-0.4c-0.7,0-1.2,0.2-1.7,0.4c-0.3-6.3-5.5-11.3-11.8-11.3
		c-3,0-5.8,1.2-7.9,3.1c0-0.1,0-0.2,0-0.3c0-1.9-0.1-4.9-1.5-8.1c1.7,0.2,4.8,0.6,6.3,2c0.2,0.2,0.5,0.2,0.8,0.1
		c0.3-0.1,0.4-0.4,0.4-0.7c0-0.5-0.8-12.5-31.4-18.2c-0.4-0.1-0.8,0.2-0.9,0.6c-0.1,0.4,0.2,0.8,0.6,0.9
		c15.3,2.9,22.7,7.3,26.2,10.5c2,1.8,3,3.4,3.4,4.6C40,25.1,36.1,25,35.9,25c-0.3,0-0.5,0.1-0.7,0.4c-0.1,0.2-0.1,0.5,0,0.7
		c1.8,3.2,1.9,6.6,1.9,8.6c0,0.8,0,1.4,0.1,1.8c-0.5,0.7-1,1.4-1.3,2.2C12.4,21.5,9,7.7,9,7.7c1.6-0.1,3.2-0.1,4.7-0.1
		c21.9,0,33.9,9.8,38.5,15.3c0.9-3.1-0.8-8.8-0.8-8.8c2.9,0.4,8.5,3.9,11.3,5.9c0.1-0.9,0.1-1.7,0-3.2c0,0,4.4,3,5.3,6.1
		c4.6-5.5,16.7-15.3,38.5-15.3c1.5,0,3.1,0,4.7,0.1C111.2,7.7,107.9,21.5,84.2,38.6z M54.1,47c-0.1,0-0.2,0.1-0.3,0.1
		c-0.8,0-1.8-1.1-2.4-2.7c-0.7-1.8-0.5-3.4,0.3-3.7c0.8-0.3,2,0.8,2.7,2.6C55.1,45.1,55,46.7,54.1,47z M68.8,44.4
		c-0.6,1.6-1.6,2.7-2.4,2.7c-0.1,0-0.2,0-0.3-0.1c-0.8-0.3-1-2-0.3-3.7c0.3-0.8,0.7-1.6,1.2-2c0.5-0.5,1-0.7,1.5-0.6
		C69.3,41,69.4,42.6,68.8,44.4z M61.8,47.6c0.1,0.2,0.1,0.3,0,0.5c-0.4,1-1.3,1.4-1.4,1.5c-0.1,0-0.2,0.1-0.3,0.1
		c-0.1,0-0.2,0-0.3-0.1c-0.1-0.1-1-0.5-1.4-1.5c-0.1-0.2-0.1-0.3,0-0.5c0.1-0.2,0.2-0.3,0.4-0.3c0.1,0,0.9-0.2,1.3-0.2
		s1.1,0.2,1.3,0.2C61.6,47.3,61.7,47.4,61.8,47.6z"/>
	<g class="st2">
		<path class="st3" d="M146.8,46.7h-8V43h-0.1c-0.3,0.5-0.7,1-1.1,1.6c-0.5,0.5-1,1-1.7,1.4s-1.4,0.7-2.3,1
			c-0.9,0.3-1.8,0.4-2.8,0.4c-2.1,0-3.8-0.3-5.2-1c-1.3-0.7-2.3-1.6-3.1-2.7c-0.7-1.2-1.2-2.5-1.5-4.1c-0.2-1.6-0.4-3.3-0.4-5.1v-15
			h8.4v13.3c0,0.8,0,1.6,0.1,2.4c0.1,0.8,0.2,1.6,0.5,2.3c0.3,0.7,0.7,1.3,1.3,1.7c0.6,0.4,1.4,0.7,2.5,0.7s2-0.2,2.6-0.6
			c0.7-0.4,1.2-0.9,1.5-1.6c0.4-0.7,0.6-1.4,0.7-2.2c0.1-0.8,0.2-1.7,0.2-2.6V19.6h8.4V46.7z"/>
		<path class="st3" d="M152.7,19.6h8v3.7h0.1c0.3-0.5,0.6-1,1.1-1.6c0.5-0.5,1.1-1,1.7-1.4c0.7-0.4,1.4-0.7,2.3-1
			c0.9-0.3,1.8-0.4,2.8-0.4c2.1,0,3.8,0.3,5.1,1c1.3,0.7,2.3,1.6,3,2.7s1.2,2.5,1.5,4.1c0.3,1.6,0.4,3.3,0.4,5.1v15h-8.4V33.4
			c0-0.8,0-1.6-0.1-2.4c-0.1-0.8-0.2-1.6-0.5-2.3c-0.3-0.7-0.7-1.3-1.3-1.7c-0.6-0.4-1.4-0.7-2.5-0.7c-1.1,0-2,0.2-2.6,0.6
			c-0.7,0.4-1.2,0.9-1.5,1.6c-0.4,0.7-0.6,1.4-0.7,2.2c-0.1,0.8-0.2,1.7-0.2,2.6v13.5h-8.4V19.6z"/>
		<path class="st3" d="M184.2,11c0-1.3,0.5-2.5,1.4-3.4c0.9-0.9,2.1-1.4,3.4-1.4s2.5,0.5,3.4,1.4c0.9,0.9,1.4,2.1,1.4,3.4
			s-0.5,2.5-1.4,3.4c-0.9,0.9-2.1,1.4-3.4,1.4s-2.5-0.5-3.4-1.4C184.7,13.5,184.2,12.4,184.2,11z M184.9,19.6h8.4v27.1h-8.4V19.6z"
			/>
		<path class="st3" d="M196.5,19.6h9l6.9,18.4h0.1l6.4-18.4h8.4l-10.7,27.1h-8.9L196.5,19.6z"/>
		<path class="st3" d="M247.4,43.3h-0.1c-0.9,1.5-2.2,2.5-3.7,3.1c-1.5,0.6-3.2,0.9-4.9,0.9c-1.3,0-2.5-0.2-3.7-0.5
			c-1.2-0.4-2.2-0.9-3.1-1.6c-0.9-0.7-1.6-1.6-2.1-2.6c-0.5-1-0.8-2.3-0.8-3.6c0-1.6,0.3-2.9,0.9-4s1.4-2,2.3-2.7
			c1-0.7,2.1-1.3,3.4-1.6c1.3-0.4,2.6-0.7,3.9-0.9c1.4-0.2,2.7-0.3,4.1-0.3c1.4,0,2.6-0.1,3.8-0.1c0-1.5-0.5-2.7-1.6-3.5
			c-1.1-0.9-2.3-1.3-3.8-1.3c-1.4,0-2.6,0.3-3.8,0.9c-1.1,0.6-2.1,1.4-3,2.4l-4.5-4.6c1.6-1.5,3.4-2.5,5.5-3.3
			c2.1-0.7,4.2-1.1,6.5-1.1c2.5,0,4.5,0.3,6.1,0.9c1.6,0.6,2.8,1.5,3.8,2.7c0.9,1.2,1.6,2.7,2,4.4c0.4,1.7,0.6,3.7,0.6,6v13.8h-7.7
			V43.3z M245.3,34.8c-0.6,0-1.4,0-2.4,0.1c-0.9,0.1-1.9,0.2-2.7,0.5c-0.9,0.3-1.6,0.7-2.2,1.2c-0.6,0.5-0.9,1.2-0.9,2.2
			c0,1,0.4,1.7,1.3,2.2c0.9,0.5,1.7,0.7,2.7,0.7c0.8,0,1.6-0.1,2.4-0.3c0.8-0.2,1.4-0.5,2-0.9c0.6-0.4,1.1-0.9,1.4-1.6
			c0.4-0.6,0.5-1.4,0.5-2.2v-1.8H245.3z"/>
		<path class="st3" d="M260.4,4.5h8.4v42.2h-8.4V4.5z"/>
		<path class="st3" d="M300.5,42c-1.3,1.7-3,3-5.1,4c-2,0.9-4.2,1.4-6.4,1.4c-2.1,0-4-0.3-5.9-1c-1.8-0.7-3.4-1.6-4.8-2.9
			c-1.4-1.2-2.4-2.7-3.2-4.5c-0.8-1.7-1.2-3.7-1.2-5.9c0-2.2,0.4-4.1,1.2-5.9c0.8-1.7,1.9-3.2,3.2-4.5c1.4-1.2,3-2.2,4.8-2.9
			c1.8-0.7,3.8-1,5.9-1c1.9,0,3.7,0.3,5.3,1c1.6,0.7,2.9,1.6,4,2.9c1.1,1.2,1.9,2.7,2.5,4.5c0.6,1.7,0.9,3.7,0.9,5.9v2.6h-19.4
			c0.3,1.6,1.1,2.9,2.2,3.8c1.1,0.9,2.5,1.4,4.1,1.4c1.4,0,2.5-0.3,3.5-0.9s1.8-1.4,2.5-2.4L300.5,42z M293.4,30.1
			c0-1.4-0.4-2.6-1.4-3.6c-1-1-2.2-1.5-3.7-1.5c-0.9,0-1.7,0.1-2.5,0.4c-0.7,0.3-1.3,0.7-1.8,1.1c-0.5,0.5-0.9,1-1.2,1.6
			c-0.3,0.6-0.4,1.3-0.5,1.9H293.4z"/>
		<path class="st3" d="M306.9,19.6h8v3.7h0.1c0.3-0.5,0.6-1,1.1-1.6c0.5-0.5,1.1-1,1.7-1.4c0.7-0.4,1.4-0.7,2.3-1
			c0.9-0.3,1.8-0.4,2.8-0.4c2.1,0,3.8,0.3,5.1,1c1.3,0.7,2.3,1.6,3,2.7s1.2,2.5,1.5,4.1c0.3,1.6,0.4,3.3,0.4,5.1v15h-8.4V33.4
			c0-0.8,0-1.6-0.1-2.4c-0.1-0.8-0.2-1.6-0.5-2.3c-0.3-0.7-0.7-1.3-1.3-1.7c-0.6-0.4-1.4-0.7-2.5-0.7c-1.1,0-2,0.2-2.6,0.6
			c-0.7,0.4-1.2,0.9-1.5,1.6c-0.4,0.7-0.6,1.4-0.7,2.2c-0.1,0.8-0.2,1.7-0.2,2.6v13.5h-8.4V19.6z"/>
		<path class="st3" d="M357.3,28.3c-0.4-0.6-1-1.1-1.7-1.5c-0.7-0.4-1.5-0.6-2.4-0.6c-2.1,0-3.8,0.6-4.9,1.9c-1.2,1.3-1.8,2.9-1.8,5
			s0.6,3.7,1.8,5c1.2,1.3,2.8,1.9,4.9,1.9c0.9,0,1.7-0.2,2.4-0.6c0.7-0.4,1.2-0.9,1.7-1.5l5.5,5.8c-1.3,1.3-2.8,2.3-4.6,2.8
			c-1.8,0.5-3.5,0.8-5.1,0.8c-2.1,0-4-0.3-5.9-1c-1.8-0.7-3.4-1.6-4.8-2.9c-1.4-1.2-2.4-2.7-3.2-4.5c-0.8-1.7-1.2-3.7-1.2-5.9
			c0-2.2,0.4-4.1,1.2-5.9c0.8-1.7,1.9-3.2,3.2-4.5c1.4-1.2,3-2.2,4.8-2.9c1.8-0.7,3.8-1,5.9-1c1.6,0,3.3,0.3,5.1,0.8
			c1.8,0.5,3.3,1.5,4.6,2.8L357.3,28.3z"/>
		<path class="st3" d="M391.5,42c-1.3,1.7-3,3-5.1,4c-2,0.9-4.2,1.4-6.4,1.4c-2.1,0-4-0.3-5.9-1c-1.8-0.7-3.4-1.6-4.8-2.9
			c-1.4-1.2-2.4-2.7-3.2-4.5c-0.8-1.7-1.2-3.7-1.2-5.9c0-2.2,0.4-4.1,1.2-5.9c0.8-1.7,1.9-3.2,3.2-4.5c1.4-1.2,3-2.2,4.8-2.9
			c1.8-0.7,3.8-1,5.9-1c1.9,0,3.7,0.3,5.3,1c1.6,0.7,2.9,1.6,4,2.9c1.1,1.2,1.9,2.7,2.5,4.5c0.6,1.7,0.9,3.7,0.9,5.9v2.6h-19.4
			c0.3,1.6,1.1,2.9,2.2,3.8c1.1,0.9,2.5,1.4,4.1,1.4c1.4,0,2.5-0.3,3.5-0.9c0.9-0.6,1.8-1.4,2.5-2.4L391.5,42z M384.4,30.1
			c0-1.4-0.4-2.6-1.4-3.6c-1-1-2.2-1.5-3.7-1.5c-0.9,0-1.7,0.1-2.5,0.4c-0.7,0.3-1.3,0.7-1.8,1.1c-0.5,0.5-0.9,1-1.2,1.6
			c-0.3,0.6-0.4,1.3-0.5,1.9H384.4z"/>
	</g>
</g>
</svg>
